<?xml version="1.0" encoding="UTF-8"?>
<svg width="26px" height="22px" viewBox="0 0 26 22" version="1.1" xmlns="http://www.w3.org/2000/svg" xmlns:xlink="http://www.w3.org/1999/xlink">
    <!-- Generator: Sketch 53.2 (72643) - https://sketchapp.com -->
    <title>Group</title>
    <desc>Created with Sketch.</desc>
    <g id="Page-1" stroke="none" stroke-width="1" fill="none" fill-rule="evenodd" stroke-linejoin="round">
        <g id="Homepage" transform="translate(-1260.000000, -9.000000)" stroke="#ffffff">
            <g id="Group" transform="translate(1260.000000, 9.158854)">
                <path d="M25.4720917,0.541666667 L22.6998417,0.541666667 C22.4268417,0.541666667 22.197175,0.74425 22.1625083,1.01725 L21.7985083,3.92491667 C21.7313417,4.46875 21.2698417,4.875 20.7238417,4.875 L2.180425,4.875 C1.66259167,4.875 1.17725833,5.12091667 0.870675,5.53691667 C0.565175,5.954 0.475258333,6.4935 0.629091667,6.98425 L2.32234167,12.4009167 C2.53359167,13.0801667 3.161925,13.5416667 3.873675,13.5416667 L19.5137583,13.5416667 C20.1117583,13.5416667 20.5970917,14.0259167 20.5970917,14.625 C20.5970917,15.2240833 20.1117583,15.7083333 19.5137583,15.7083333 L4.34709167,15.7083333" id="Stroke-5026" stroke-linecap="round"></path>
                <path d="M21.1387583,7.04166667 L20.5970917,11.9166667" id="Stroke-5027" stroke-linecap="round"></path>
                <path d="M8.13875833,19.5 C8.13875833,20.397 7.41075833,21.125 6.51375833,21.125 C5.61675833,21.125 4.88875833,20.397 4.88875833,19.5 C4.88875833,18.603 5.61675833,17.875 6.51375833,17.875 C7.41075833,17.875 8.13875833,18.603 8.13875833,19.5 L8.13875833,19.5 Z" id="Stroke-5028"></path>
                <path d="M20.055425,19.5 C20.055425,20.397 19.327425,21.125 18.430425,21.125 C17.533425,21.125 16.805425,20.397 16.805425,19.5 C16.805425,18.603 17.533425,17.875 18.430425,17.875 C19.327425,17.875 20.055425,18.603 20.055425,19.5 L20.055425,19.5 Z" id="Stroke-5029"></path>
            </g>
        </g>
    </g>
</svg>
