<?xml version="1.0" encoding="utf-8"?>
<!-- Generator: Adobe Illustrator 23.0.0, SVG Export Plug-In . SVG Version: 6.00 Build 0)  -->
<svg version="1.1" id="Layer_1" xmlns="http://www.w3.org/2000/svg" xmlns:xlink="http://www.w3.org/1999/xlink" x="0px" y="0px"
	 viewBox="0 0 450.67 135.33" enable-background="new 0 0 450.67 135.33" xml:space="preserve">
<g fill="#ffffff">
	<g>
		<polygon points="297.08,105.23 296.88,105.13 296.58,105.33 296.78,105.43 		"/>
		<polygon points="296.08,107.63 296.28,107.73 296.48,107.53 296.38,107.43 		"/>
		<polygon points="296.08,106.73 296.28,106.83 296.48,106.63 296.38,106.53 		"/>
		<polygon points="296.48,105.73 296.38,105.53 296.08,105.83 296.28,105.93 		"/>
		<polygon points="336.98,99.03 337.18,99.13 337.38,98.93 337.28,98.83 		"/>
		<polygon points="295.58,108.13 295.68,108.23 295.98,108.03 295.78,107.93 		"/>
		<polygon points="296.58,108.13 296.78,108.23 297.08,108.03 296.88,107.93 		"/>
		<polygon points="297.18,105.83 297.28,105.93 297.58,105.73 297.38,105.53 		"/>
		<polygon points="297.58,104.73 297.48,104.73 297.38,104.73 297.18,104.83 297.28,105.03 		"/>
		<polygon points="296.58,106.23 296.78,106.33 297.08,106.13 296.88,106.03 		"/>
		<polygon points="297.18,106.73 297.28,106.83 297.58,106.63 297.38,106.53 		"/>
		<polygon points="295.58,106.23 295.68,106.33 295.98,106.13 295.78,106.03 		"/>
		<polygon points="296.58,107.13 296.78,107.33 297.08,107.03 296.88,106.93 		"/>
		<polygon points="337.58,98.63 337.68,98.73 337.98,98.53 337.78,98.33 		"/>
		<polygon points="297.18,107.63 297.38,107.73 297.58,107.53 297.38,107.43 		"/>
		<polygon points="337.58,99.53 337.68,99.63 337.98,99.43 337.78,99.33 		"/>
		<polygon points="338.48,98.03 338.38,97.93 338.08,98.13 338.28,98.23 		"/>
		<polygon points="337.58,100.43 337.68,100.53 337.98,100.33 337.78,100.23 		"/>
		<polygon points="336.98,99.93 337.18,100.13 337.38,99.83 337.28,99.73 		"/>
		<polygon points="337.08,100.83 337.38,100.83 337.38,100.83 337.28,100.73 		"/>
		<polygon points="337.98,97.63 337.78,97.43 337.58,97.63 337.68,97.83 		"/>
		<polygon points="294.98,106.73 295.18,106.83 295.38,106.63 295.28,106.53 		"/>
		<polygon points="295.38,105.73 295.28,105.53 294.98,105.83 295.18,105.93 		"/>
		<polygon points="295.98,105.23 295.78,105.13 295.58,105.33 295.68,105.43 		"/>
		<polygon points="294.98,107.63 295.18,107.73 295.38,107.53 295.28,107.43 		"/>
		<polygon points="338.18,100.83 338.48,100.83 338.48,100.83 338.38,100.73 		"/>
		<polygon points="338.08,99.03 338.28,99.13 338.48,98.93 338.38,98.83 		"/>
		<polygon points="338.08,99.93 338.28,100.13 338.48,99.83 338.38,99.73 		"/>
		<polygon points="295.58,107.13 295.68,107.33 295.98,107.03 295.78,106.93 		"/>
		<polygon points="299.88,107.13 299.98,107.23 300.28,107.03 300.18,106.93 		"/>
		<polygon points="299.88,106.23 299.98,106.33 300.28,106.13 300.18,106.03 		"/>
		<polygon points="299.88,108.13 299.98,108.23 300.28,108.03 300.18,107.83 		"/>
		<polygon points="300.78,104.73 300.68,104.73 300.58,104.73 300.38,104.83 300.58,105.03 		"/>
		<polygon points="299.38,107.63 299.48,107.73 299.78,107.53 299.58,107.43 		"/>
		<polygon points="300.28,105.23 300.18,105.13 299.88,105.33 299.98,105.43 		"/>
		<polygon points="300.98,106.23 301.08,106.33 301.38,106.13 301.18,106.03 		"/>
		<polygon points="301.38,105.23 301.18,105.13 300.98,105.33 301.08,105.43 		"/>
		<polygon points="298.08,105.23 297.98,105.13 297.68,105.33 297.88,105.43 		"/>
		<polygon points="300.98,107.13 301.08,107.23 301.38,107.03 301.18,106.93 		"/>
		<polygon points="300.48,106.73 300.58,106.83 300.78,106.63 300.68,106.53 		"/>
		<polygon points="300.48,107.63 300.58,107.73 300.78,107.53 300.68,107.43 		"/>
		<polygon points="300.48,105.73 300.58,105.93 300.78,105.73 300.68,105.53 		"/>
		<polygon points="299.38,106.73 299.48,106.83 299.68,106.63 299.58,106.53 		"/>
		<polygon points="298.68,104.73 298.58,104.73 298.48,104.73 298.28,104.83 298.38,105.03 		"/>
		<polygon points="298.28,106.73 298.38,106.83 298.68,106.63 298.48,106.53 		"/>
		<polygon points="297.68,108.13 297.88,108.23 298.08,108.03 297.98,107.83 		"/>
		<polygon points="298.28,105.83 298.38,105.93 298.68,105.73 298.48,105.53 		"/>
		<polygon points="297.68,106.23 297.88,106.33 298.08,106.13 297.98,106.03 		"/>
		<polygon points="297.68,107.13 297.88,107.23 298.08,107.03 297.98,106.93 		"/>
		<polygon points="299.68,104.73 299.68,104.73 299.58,104.73 299.38,104.83 299.48,105.03 		"/>
		<polygon points="298.78,108.13 298.98,108.23 299.18,108.03 299.08,107.83 		"/>
		<polygon points="298.78,107.13 298.98,107.23 299.18,107.03 299.08,106.93 		"/>
		<polygon points="299.38,105.83 299.48,105.93 299.68,105.73 299.58,105.53 		"/>
		<polygon points="298.78,106.23 298.88,106.33 299.18,106.13 299.08,106.03 		"/>
		<polygon points="299.18,105.23 299.08,105.13 298.78,105.33 298.88,105.43 		"/>
		<polygon points="298.28,107.63 298.38,107.73 298.68,107.53 298.48,107.43 		"/>
		<polygon points="351.68,89.93 351.48,89.73 351.18,89.93 351.38,90.13 		"/>
		<polygon points="351.28,91.83 351.38,91.93 351.68,91.73 351.48,91.63 		"/>
		<polygon points="337.38,98.03 337.28,97.93 336.98,98.13 337.18,98.23 		"/>
		<polygon points="351.28,90.93 351.38,91.03 351.68,90.83 351.48,90.63 		"/>
		<polygon points="351.08,90.33 350.98,90.23 350.68,90.43 350.88,90.53 		"/>
		<polygon points="350.68,91.33 350.88,91.43 351.08,91.23 350.98,91.13 		"/>
		<polygon points="351.78,92.23 351.98,92.43 352.18,92.13 352.08,92.03 		"/>
		<polygon points="352.78,89.93 352.58,89.73 352.28,89.93 352.48,90.13 		"/>
		<polygon points="351.28,92.73 351.38,92.83 351.68,92.63 351.48,92.53 		"/>
		<polygon points="352.28,90.93 352.48,91.03 352.78,90.83 352.58,90.63 		"/>
		<polygon points="351.78,91.33 351.98,91.43 352.18,91.23 351.98,91.13 		"/>
		<polygon points="352.18,90.33 351.98,90.23 351.78,90.43 351.98,90.53 		"/>
		<polygon points="352.28,91.83 352.48,91.93 352.78,91.73 352.58,91.63 		"/>
		<polygon points="300.98,108.13 301.08,108.23 301.38,107.93 301.18,107.83 		"/>
		<polygon points="350.68,92.33 350.88,92.43 351.08,92.13 350.98,92.03 		"/>
		<polygon points="335.38,100.43 335.58,100.53 335.78,100.33 335.68,100.23 		"/>
		<polygon points="336.38,98.03 336.18,97.93 335.98,98.13 336.08,98.23 		"/>
		<polygon points="335.38,99.53 335.58,99.63 335.78,99.43 335.68,99.33 		"/>
		<polygon points="335.98,99.03 336.08,99.13 336.38,98.93 336.18,98.83 		"/>
		<polygon points="334.98,100.83 335.28,100.83 335.28,100.83 335.08,100.73 		"/>
		<polygon points="335.38,98.63 335.58,98.73 335.78,98.53 335.68,98.33 		"/>
		<polygon points="335.78,97.63 335.68,97.43 335.38,97.63 335.58,97.83 		"/>
		<polygon points="336.48,98.63 336.68,98.73 336.88,98.53 336.78,98.33 		"/>
		<polygon points="336.48,99.53 336.68,99.63 336.88,99.43 336.78,99.33 		"/>
		<polygon points="336.48,100.43 336.68,100.53 336.88,100.33 336.78,100.23 		"/>
		<polygon points="335.98,99.93 336.08,100.13 336.38,99.83 336.18,99.73 		"/>
		<polygon points="336.08,100.83 336.28,100.83 336.38,100.83 336.18,100.73 		"/>
		<polygon points="336.88,97.63 336.78,97.43 336.48,97.63 336.68,97.83 		"/>
		<polygon points="353.98,91.33 354.08,91.43 354.38,91.23 354.18,91.13 		"/>
		<polygon points="352.88,92.23 352.98,92.43 353.28,92.13 353.08,92.03 		"/>
		<polygon points="353.78,89.93 353.68,89.73 353.38,89.93 353.58,90.13 		"/>
		<polygon points="353.38,90.93 353.58,91.03 353.78,90.83 353.68,90.63 		"/>
		<polygon points="334.88,99.93 334.98,100.13 335.28,99.83 335.08,99.73 		"/>
		<polygon points="352.88,91.33 352.98,91.43 353.28,91.23 353.08,91.13 		"/>
		<polygon points="353.28,90.33 353.08,90.23 352.88,90.43 352.98,90.53 		"/>
		<polygon points="353.38,91.83 353.58,91.93 353.78,91.73 353.68,91.63 		"/>
		<polygon points="353.38,92.73 353.58,92.83 353.78,92.63 353.68,92.53 		"/>
		<polygon points="353.98,92.23 354.08,92.43 354.38,92.13 354.18,92.03 		"/>
		<polygon points="334.88,99.03 334.98,99.13 335.28,98.93 335.08,98.83 		"/>
		<polygon points="335.28,98.03 335.08,97.93 334.88,98.13 334.98,98.23 		"/>
		<polygon points="354.38,90.33 354.18,90.23 353.98,90.43 354.08,90.53 		"/>
		<polygon points="352.28,92.73 352.48,92.83 352.78,92.63 352.58,92.53 		"/>
		<polygon points="256.68,90.03 256.58,89.93 256.28,90.13 256.48,90.33 		"/>
		<polygon points="256.28,91.03 256.48,91.23 256.68,91.03 256.58,90.83 		"/>
		<polygon points="255.78,92.43 255.88,92.53 256.18,92.33 255.98,92.23 		"/>
		<polygon points="255.58,90.03 255.48,89.93 255.18,90.13 255.38,90.33 		"/>
		<polygon points="255.78,91.53 255.88,91.63 256.18,91.43 255.98,91.33 		"/>
		<polygon points="256.28,92.03 256.48,92.13 256.68,91.93 256.58,91.73 		"/>
		<polygon points="255.58,91.03 255.48,90.83 255.18,91.03 255.38,91.23 		"/>
		<polygon points="256.18,90.53 255.98,90.43 255.78,90.63 255.88,90.73 		"/>
		<polygon points="257.78,90.03 257.68,89.93 257.38,90.13 257.48,90.23 		"/>
		<polygon points="257.38,91.03 257.48,91.23 257.78,91.03 257.68,90.83 		"/>
		<polygon points="256.88,92.43 256.98,92.53 257.18,92.33 257.08,92.23 		"/>
		<polygon points="256.28,92.93 256.48,93.03 256.68,92.83 256.58,92.73 		"/>
		<polygon points="257.18,90.53 257.08,90.43 256.88,90.63 256.98,90.73 		"/>
		<polygon points="256.88,91.53 256.98,91.63 257.18,91.43 257.08,91.33 		"/>
		<polygon points="276.18,106.03 276.38,106.13 276.58,105.93 276.38,105.83 		"/>
		<polygon points="275.68,106.43 275.78,106.63 276.08,106.33 275.88,106.23 		"/>
		<polygon points="275.68,107.33 275.78,107.53 276.08,107.33 275.88,107.13 		"/>
		<polygon points="276.08,105.43 275.88,105.33 275.68,105.53 275.78,105.63 		"/>
		<polygon points="275.68,108.33 275.78,108.43 276.08,108.23 275.88,108.13 		"/>
		<polygon points="275.08,106.03 275.28,106.13 275.48,105.93 275.38,105.83 		"/>
		<polygon points="275.08,107.83 275.28,107.93 275.48,107.73 275.38,107.63 		"/>
		<polygon points="275.08,106.93 275.28,107.03 275.48,106.83 275.38,106.73 		"/>
		<polygon points="276.18,101.73 275.88,101.73 272.28,104.73 272.48,104.73 		"/>
		<polygon points="276.58,105.03 276.38,104.83 276.18,105.13 276.28,105.23 		"/>
		<polygon points="255.18,92.93 255.38,93.03 255.58,92.83 255.48,92.73 		"/>
		<polygon points="276.18,107.83 276.38,107.93 276.58,107.73 276.38,107.63 		"/>
		<polygon points="257.38,92.03 257.48,92.13 257.78,91.93 257.68,91.73 		"/>
		<polygon points="276.18,106.93 276.38,107.03 276.58,106.83 276.38,106.73 		"/>
		<polygon points="255.58,91.93 255.48,91.73 255.18,92.03 255.38,92.13 		"/>
		<polygon points="301.88,105.73 301.78,105.53 301.48,105.73 301.68,105.93 		"/>
		<polygon points="254.68,92.43 254.78,92.53 255.08,92.33 254.88,92.23 		"/>
		<polygon points="257.88,92.43 258.08,92.53 258.28,92.33 258.18,92.23 		"/>
		<polygon points="257.38,92.93 257.48,93.03 257.78,92.83 257.68,92.73 		"/>
		<polygon points="255.08,91.43 254.88,91.33 254.68,91.53 254.78,91.63 		"/>
		<polygon points="257.88,91.53 258.08,91.63 258.28,91.43 258.18,91.33 		"/>
		<polygon points="258.28,90.53 258.18,90.43 257.88,90.63 258.08,90.73 		"/>
		<polygon points="255.08,90.53 254.88,90.43 254.68,90.63 254.78,90.73 		"/>
		<polygon points="273.18,92.93 273.38,93.03 273.58,92.73 273.48,92.63 		"/>
		<polygon points="273.78,91.53 273.88,91.63 274.08,91.43 273.98,91.33 		"/>
		<polygon points="273.78,92.43 273.88,92.53 274.08,92.33 273.98,92.23 		"/>
		<polygon points="273.18,91.93 273.28,92.03 273.58,91.93 273.48,91.73 		"/>
		<polygon points="273.18,91.03 273.28,91.13 273.58,90.93 273.48,90.83 		"/>
		<polygon points="272.68,92.43 272.78,92.53 273.08,92.33 272.88,92.23 		"/>
		<polygon points="273.58,90.03 273.48,89.93 273.18,90.13 273.28,90.23 		"/>
		<polygon points="274.68,90.03 274.58,89.93 274.28,90.13 274.38,90.23 		"/>
		<polygon points="272.68,91.53 272.78,91.63 273.08,91.43 272.88,91.33 		"/>
		<polygon points="274.28,92.93 274.38,93.03 274.68,92.73 274.58,92.63 		"/>
		<polygon points="274.88,92.43 274.98,92.53 275.18,92.33 275.08,92.23 		"/>
		<polygon points="275.18,90.53 275.08,90.33 274.78,90.53 274.98,90.73 		"/>
		<polygon points="274.28,91.03 274.38,91.13 274.68,90.93 274.58,90.83 		"/>
		<polygon points="274.28,91.93 274.38,92.03 274.68,91.83 274.58,91.73 		"/>
		<polygon points="274.88,91.53 274.98,91.63 275.18,91.43 275.08,91.23 		"/>
		<polygon points="302.08,106.23 302.18,106.33 302.48,106.13 302.28,106.03 		"/>
		<polygon points="302.08,107.13 302.18,107.23 302.48,107.03 302.28,106.93 		"/>
		<polygon points="273.08,90.53 272.88,90.33 272.68,90.53 272.78,90.73 		"/>
		<polygon points="302.48,105.23 302.28,105.13 301.98,105.33 302.18,105.43 		"/>
		<polygon points="301.48,107.63 301.68,107.73 301.88,107.53 301.78,107.43 		"/>
		<polygon points="301.48,106.73 301.68,106.83 301.88,106.63 301.78,106.53 		"/>
		<polygon points="302.08,108.13 302.18,108.23 302.48,107.93 302.28,107.83 		"/>
		<polygon points="302.98,105.73 302.78,105.53 302.58,105.73 302.78,105.93 		"/>
		<polygon points="302.58,106.73 302.78,106.83 302.98,106.63 302.88,106.53 		"/>
		<polygon points="302.58,107.63 302.78,107.73 302.98,107.53 302.88,107.43 		"/>
		<polygon points="275.38,91.93 275.48,92.03 275.78,91.83 275.58,91.73 		"/>
		<polygon points="273.48,107.43 273.58,107.53 273.88,107.33 273.78,107.13 		"/>
		<polygon points="273.48,108.33 273.58,108.43 273.88,108.23 273.78,108.13 		"/>
		<polygon points="274.38,105.03 274.28,104.83 273.98,105.13 274.18,105.23 		"/>
		<polygon points="273.48,106.43 273.58,106.63 273.88,106.33 273.78,106.23 		"/>
		<polygon points="273.88,105.43 273.78,105.33 273.48,105.53 273.58,105.63 		"/>
		<polygon points="273.98,106.03 274.18,106.13 274.38,105.93 274.28,105.83 		"/>
		<polygon points="274.08,106.93 274.18,107.03 274.38,106.83 274.28,106.73 		"/>
		<polygon points="274.58,106.43 274.68,106.63 274.98,106.33 274.78,106.23 		"/>
		<polygon points="274.58,107.33 274.68,107.53 274.98,107.33 274.78,107.13 		"/>
		<polygon points="274.58,108.33 274.68,108.43 274.98,108.23 274.88,108.13 		"/>
		<polygon points="275.78,90.03 275.58,89.93 275.38,90.13 275.48,90.23 		"/>
		<polygon points="272.78,105.43 272.68,105.33 272.38,105.53 272.48,105.63 		"/>
		<polygon points="274.98,105.43 274.78,105.33 274.58,105.53 274.68,105.63 		"/>
		<polygon points="274.08,107.83 274.18,107.93 274.38,107.73 274.28,107.63 		"/>
		<polygon points="275.38,92.93 275.48,93.03 275.78,92.73 275.58,92.63 		"/>
		<polygon points="275.88,92.43 276.08,92.53 276.28,92.33 276.18,92.23 		"/>
		<polygon points="275.88,91.53 276.08,91.63 276.28,91.43 276.18,91.23 		"/>
		<polygon points="276.28,90.53 276.18,90.33 275.88,90.53 276.08,90.73 		"/>
		<polygon points="275.38,91.03 275.48,91.13 275.78,90.93 275.58,90.83 		"/>
		<polygon points="275.48,105.03 275.38,104.83 275.08,105.13 275.28,105.23 		"/>
		<polygon points="273.28,105.93 273.18,105.83 272.98,106.03 273.08,106.13 		"/>
		<polygon points="272.38,108.33 272.48,108.43 272.78,108.23 272.68,108.13 		"/>
		<polygon points="272.98,107.83 273.08,107.93 273.28,107.73 273.18,107.63 		"/>
		<polygon points="272.78,107.33 272.68,107.13 272.38,107.43 272.48,107.53 		"/>
		<polygon points="273.28,105.03 273.18,104.93 272.98,105.13 273.08,105.23 		"/>
		<polygon points="272.78,106.33 272.68,106.23 272.38,106.43 272.48,106.63 		"/>
		<polygon points="273.28,106.83 273.18,106.73 272.98,106.93 273.08,107.03 		"/>
		<polygon points="274.08,90.53 273.98,90.33 273.78,90.53 273.88,90.73 		"/>
		<polygon points="214.98,90.13 214.88,90.03 214.68,90.23 214.78,90.33 		"/>
		<polygon points="213.58,92.03 213.68,92.23 213.98,91.93 213.78,91.83 		"/>
		<polygon points="214.68,91.13 214.78,91.33 215.08,91.03 214.88,90.93 		"/>
		<polygon points="213.58,93.03 213.68,93.13 213.98,92.93 213.78,92.83 		"/>
		<polygon points="211.88,91.63 212.08,91.73 212.38,91.53 212.18,91.43 		"/>
		<polygon points="214.08,91.63 214.28,91.73 214.48,91.53 214.38,91.43 		"/>
		<polygon points="214.68,92.03 214.78,92.23 215.08,91.93 214.88,91.83 		"/>
		<polygon points="215.18,92.53 215.28,92.63 215.58,92.43 215.48,92.33 		"/>
		<polygon points="215.18,91.63 215.28,91.73 215.58,91.53 215.48,91.43 		"/>
		<polygon points="214.68,93.03 214.78,93.13 215.08,92.93 214.88,92.73 		"/>
		<polygon points="215.58,90.63 215.48,90.43 215.18,90.73 215.28,90.83 		"/>
		<polygon points="212.98,91.63 213.18,91.73 213.48,91.53 213.28,91.43 		"/>
		<polygon points="212.48,93.03 212.68,93.13 212.88,92.93 212.68,92.83 		"/>
		<polygon points="212.48,91.13 212.68,91.33 212.88,91.03 212.68,90.93 		"/>
		<polygon points="212.48,92.03 212.68,92.23 212.88,91.93 212.68,91.83 		"/>
		<polygon points="212.88,90.13 212.68,90.03 212.48,90.23 212.68,90.33 		"/>
		<polygon points="211.88,92.53 212.08,92.63 212.38,92.43 212.18,92.33 		"/>
		<polygon points="230.28,90.43 230.08,90.33 229.88,90.53 229.98,90.73 		"/>
		<polygon points="212.98,92.53 213.18,92.63 213.48,92.43 213.28,92.33 		"/>
		<polygon points="213.98,90.13 213.78,90.03 213.58,90.23 213.68,90.33 		"/>
		<polygon points="213.58,91.13 213.68,91.33 213.98,91.03 213.78,90.93 		"/>
		<polygon points="213.38,90.63 213.28,90.43 212.98,90.73 213.18,90.83 		"/>
		<polygon points="214.48,90.63 214.38,90.43 214.08,90.73 214.28,90.83 		"/>
		<polygon points="231.48,91.93 231.68,92.03 231.88,91.83 231.68,91.73 		"/>
		<polygon points="231.98,92.43 232.18,92.53 232.38,92.33 232.28,92.23 		"/>
		<polygon points="232.98,90.03 232.78,89.93 232.58,90.13 232.68,90.23 		"/>
		<polygon points="232.38,90.43 232.28,90.33 231.98,90.53 232.18,90.63 		"/>
		<polygon points="231.48,92.83 231.68,93.03 231.88,92.73 231.68,92.63 		"/>
		<polygon points="231.98,91.53 232.18,91.63 232.38,91.43 232.28,91.23 		"/>
		<polygon points="233.08,92.43 233.28,92.53 233.48,92.33 233.38,92.23 		"/>
		<polygon points="229.88,91.53 229.98,91.63 230.28,91.43 230.08,91.33 		"/>
		<polygon points="232.58,92.83 232.68,93.03 232.98,92.73 232.78,92.63 		"/>
		<polygon points="232.58,91.93 232.68,92.03 232.98,91.83 232.78,91.73 		"/>
		<polygon points="232.58,91.03 232.68,91.13 232.98,90.93 232.78,90.83 		"/>
		<polygon points="233.48,90.43 233.38,90.33 233.08,90.53 233.18,90.63 		"/>
		<polygon points="230.38,91.03 230.58,91.13 230.78,90.93 230.68,90.83 		"/>
		<polygon points="230.38,91.93 230.58,92.03 230.78,91.83 230.68,91.73 		"/>
		<polygon points="230.78,90.03 230.68,89.93 230.38,90.13 230.58,90.23 		"/>
		<polygon points="230.38,92.83 230.58,93.03 230.78,92.73 230.68,92.63 		"/>
		<polygon points="229.88,92.43 229.98,92.53 230.28,92.33 230.08,92.23 		"/>
		<polygon points="231.48,91.03 231.58,91.13 231.88,90.93 231.68,90.83 		"/>
		<polygon points="231.38,90.43 231.18,90.33 230.88,90.53 231.08,90.73 		"/>
		<polygon points="231.88,90.03 231.68,89.93 231.48,90.13 231.58,90.23 		"/>
		<polygon points="230.88,92.43 231.08,92.53 231.38,92.33 231.18,92.23 		"/>
		<polygon points="230.88,91.53 231.08,91.63 231.38,91.43 231.18,91.23 		"/>
		<polygon points="233.08,91.53 233.18,91.63 233.48,91.43 233.38,91.23 		"/>
		<polygon points="192.58,106.03 192.38,105.93 192.18,106.13 192.28,106.23 		"/>
		<polygon points="193.08,107.43 192.98,107.33 192.68,107.53 192.88,107.63 		"/>
		<polygon points="192.18,107.93 192.28,108.03 192.58,107.83 192.38,107.73 		"/>
		<polygon points="192.58,106.93 192.38,106.83 192.18,107.03 192.28,107.13 		"/>
		<polygon points="193.08,106.43 192.98,106.33 192.68,106.53 192.88,106.73 		"/>
		<polygon points="193.08,105.53 192.98,105.43 192.68,105.63 192.88,105.73 		"/>
		<polygon points="192.68,108.43 192.88,108.53 193.08,108.33 192.98,108.23 		"/>
		<polygon points="190.58,108.43 190.68,108.53 190.88,108.33 190.78,108.23 		"/>
		<polygon points="190.38,106.93 190.28,106.83 189.98,107.03 190.08,107.13 		"/>
		<polygon points="190.38,105.13 190.28,104.93 189.98,105.23 190.08,105.33 		"/>
		<polygon points="190.38,106.03 190.28,105.93 189.98,106.13 190.08,106.23 		"/>
		<polygon points="190.88,105.53 190.78,105.43 190.58,105.63 190.68,105.73 		"/>
		<polygon points="189.98,107.93 190.08,108.03 190.38,107.83 190.28,107.73 		"/>
		<polygon points="189.48,108.43 189.58,108.53 189.88,108.33 189.68,108.23 		"/>
		<polygon points="190.88,106.43 190.78,106.33 190.58,106.63 190.68,106.73 		"/>
		<polygon points="189.78,105.53 189.68,105.43 189.48,105.63 189.58,105.73 		"/>
		<polygon points="189.88,106.43 189.68,106.33 189.48,106.63 189.58,106.73 		"/>
		<polygon points="189.88,107.43 189.68,107.33 189.48,107.53 189.58,107.63 		"/>
		<polygon points="191.48,106.03 191.38,105.93 191.08,106.13 191.18,106.23 		"/>
		<polygon points="191.98,105.53 191.88,105.43 191.58,105.63 191.78,105.73 		"/>
		<polygon points="191.98,106.43 191.88,106.33 191.58,106.53 191.78,106.73 		"/>
		<polygon points="191.08,107.93 191.18,108.03 191.48,107.83 191.38,107.73 		"/>
		<polygon points="191.98,107.43 191.88,107.33 191.58,107.53 191.78,107.63 		"/>
		<polygon points="190.88,107.43 190.78,107.33 190.58,107.53 190.68,107.63 		"/>
		<polygon points="191.58,108.43 191.78,108.53 191.98,108.33 191.88,108.23 		"/>
		<polygon points="212.38,90.63 212.18,90.43 211.88,90.73 212.08,90.83 		"/>
		<polygon points="191.48,105.13 191.38,104.93 191.08,105.23 191.18,105.33 		"/>
		<polygon points="192.58,105.13 192.38,104.93 192.18,105.23 192.28,105.33 		"/>
		<polygon points="191.48,106.93 191.38,106.83 191.08,107.03 191.18,107.13 		"/>
		<polygon points="214.08,92.53 214.28,92.63 214.48,92.43 214.38,92.33 		"/>
		<polygon points="241.18,107.63 241.28,107.83 241.58,107.53 241.38,107.43 		"/>
		<polygon points="242.08,105.23 241.88,105.13 241.68,105.33 241.88,105.53 		"/>
		<polygon points="241.58,106.63 241.38,106.53 241.08,106.73 241.28,106.83 		"/>
		<polygon points="241.58,105.73 241.38,105.63 241.08,105.83 241.28,105.93 		"/>
		<polygon points="242.18,105.83 242.38,105.93 242.58,105.73 242.48,105.63 		"/>
		<polygon points="242.18,107.63 242.38,107.83 242.58,107.53 242.48,107.43 		"/>
		<polygon points="240.58,108.13 240.78,108.23 240.98,108.03 240.88,107.93 		"/>
		<polygon points="242.18,106.73 242.38,106.83 242.58,106.63 242.48,106.53 		"/>
		<polygon points="242.08,107.13 241.88,106.93 241.68,107.23 241.88,107.33 		"/>
		<polygon points="241.68,108.13 241.88,108.23 242.08,108.03 241.98,107.93 		"/>
		<polygon points="242.08,106.23 241.88,106.13 241.68,106.33 241.88,106.43 		"/>
		<polygon points="239.88,106.23 239.78,106.13 239.48,106.33 239.68,106.43 		"/>
		<polygon points="239.88,107.13 239.78,107.03 239.48,107.23 239.68,107.33 		"/>
		<polygon points="240.98,107.13 240.88,107.03 240.58,107.23 240.78,107.33 		"/>
		<polygon points="239.38,105.73 239.18,105.63 238.98,105.83 239.08,105.93 		"/>
		<polygon points="239.88,105.23 239.78,105.13 239.48,105.33 239.68,105.53 		"/>
		<polygon points="239.48,108.13 239.68,108.23 239.88,108.03 239.78,107.93 		"/>
		<polygon points="240.48,106.63 240.28,106.53 240.08,106.73 240.18,106.83 		"/>
		<polygon points="240.98,106.23 240.88,106.13 240.58,106.33 240.78,106.43 		"/>
		<polygon points="240.98,105.23 240.88,105.13 240.58,105.33 240.78,105.53 		"/>
		<polygon points="240.08,107.63 240.18,107.83 240.48,107.63 240.28,107.43 		"/>
		<polygon points="240.48,105.73 240.28,105.63 240.08,105.83 240.18,105.93 		"/>
		<polygon points="238.78,105.23 238.68,105.13 238.48,105.33 238.48,105.43 238.58,105.53 		"/>
		<polygon points="238.78,106.23 238.68,106.13 238.48,106.23 238.48,106.33 238.58,106.43 		"/>
		<polygon points="238.48,108.13 238.48,108.23 238.58,108.23 238.78,108.03 238.68,107.93 		"/>
		<polygon points="238.98,107.63 239.08,107.83 239.38,107.63 239.18,107.43 		"/>
		<polygon points="238.78,107.13 238.68,107.03 238.48,107.13 238.48,107.23 238.58,107.33 		"/>
		<polygon points="239.38,106.63 239.18,106.53 238.98,106.73 239.08,106.83 		"/>
		<path d="M200.08,103.63l-1.9-1.6h-0.6l2.4,2C200.08,103.93,200.08,103.73,200.08,103.63z"/>
		<path d="M193.38,104.93l3.5,3c0.1-0.1,0.2-0.1,0.4-0.2l-3.4-2.9C193.78,104.83,193.58,104.83,193.38,104.93h-4.5
			c-0.1,0-0.3,0-0.4,0l-3.3,2.8c0.2,0.1,0.3,0.2,0.5,0.3l3.5-3l0.1,0.1l-0.2,0.2l-0.1-0.1v0.2l-3.1,2.6c0.2,0.1,0.4,0.2,0.6,0.2
			l2.8-2.4l0.1,0.1l-0.2,0.2l-0.1-0.1v0.1l-2.4,2l0.6,0.2l2-1.7l0.1,0.1l-0.3,0.2l-0.1-0.1v0.3l-1.6,1.2c0.2,0,0.4,0.1,0.7,0.1
			l1.1-0.9l0.1,0.1l-0.3,0.2l-0.1-0.1v0.2l-0.6,0.5c0.2,0,0.4,0,0.6,0h0.2h0.1l0,0h1h0.1l0,0h1h0.1l0,0h1l0,0h0.1h1v-0.1l0.1,0.1
			c0.2,0,0.4,0,0.5,0l-0.7-0.6v-0.1l0,0l-0.2-0.1l0.2-0.2v-0.1l1.1,1l0.5-0.1l-1.6-1.4l0,0l0,0l-0.2-0.1l0.2-0.2v-0.1l2,1.7
			c0.2-0.1,0.3-0.1,0.4-0.1l-2.4-2v-0.1l0,0l-0.2-0.1l0.2-0.2v-0.1l2.8,2.3l0.4-0.2L193.38,104.93L193.38,104.93l0,0.1l-0.2-0.1
			l0.2-0.2L193.38,104.93z M189.68,105.43l0.1,0.1l-0.3,0.2l-0.1-0.1L189.68,105.43z M189.68,106.33l0.1,0.1l-0.3,0.2l-0.1-0.1
			L189.68,106.33z M189.68,107.33l0.1,0.1l-0.2,0.2l-0.1-0.1L189.68,107.33z M189.58,108.53l-0.1-0.1l0.2-0.2l0.1,0.1L189.58,108.53
			z M190.28,104.93l0.1,0.1l-0.2,0.2l-0.1-0.1L190.28,104.93z M190.28,105.93l0.1,0.1l-0.2,0.2l-0.1-0.1L190.28,105.93z
			 M190.28,106.83l0.1,0.1l-0.2,0.2l-0.1-0.1L190.28,106.83z M190.08,108.03l-0.1-0.1l0.3-0.2l0.1,0.1L190.08,108.03z
			 M190.78,105.43l0.1,0.1l-0.3,0.2l-0.1-0.1L190.78,105.43z M190.78,106.33l0.1,0.1l-0.3,0.2l-0.1-0.1L190.78,106.33z
			 M190.78,107.33l0.1,0.1l-0.3,0.2l-0.1-0.1L190.78,107.33z M190.68,108.53l-0.1-0.1l0.2-0.2l0.1,0.1L190.68,108.53z
			 M191.28,104.93l0.1,0.1l-0.3,0.2l-0.1-0.1L191.28,104.93z M191.28,105.93l0.1,0.1l-0.3,0.2l-0.1-0.1L191.28,105.93z
			 M191.28,106.83l0.1,0.1l-0.2,0.2l-0.1-0.1L191.28,106.83z M191.18,108.03l-0.1-0.1l0.3-0.2l0.1,0.1L191.18,108.03z
			 M191.88,105.43l0.2,0.1l-0.2,0.2l-0.1-0.1L191.88,105.43z M191.88,106.33l0.2,0.1l-0.3,0.2l-0.1-0.1L191.88,106.33z
			 M191.88,107.33l0.2,0.1l-0.3,0.2l-0.1-0.1L191.88,107.33z M191.78,108.53l-0.1-0.1l0.2-0.2l0.2,0.1L191.78,108.53z
			 M192.38,104.93l0.2,0.1l-0.3,0.2l-0.2-0.1L192.38,104.93z M192.38,105.93l0.2,0.1l-0.3,0.2l-0.2-0.1L192.38,105.93z
			 M192.38,106.83l0.2,0.1l-0.2,0.2l-0.2-0.1L192.38,106.83z M192.28,108.03l-0.2-0.1l0.2-0.2l0.2,0.1L192.28,108.03z
			 M192.88,105.43l0.2,0.1l-0.2,0.2l-0.2-0.1L192.88,105.43z M192.88,106.33l0.2,0.1l-0.2,0.2l-0.2-0.1L192.88,106.33z
			 M192.88,107.23l0.2,0.1l-0.3,0.2l-0.2-0.1L192.88,107.23z M192.78,108.53l-0.2-0.1l0.3-0.2l0.2,0.1L192.78,108.53z"/>
		<path d="M200.18,102.93v-0.2l-0.9-0.7h-0.6l1.4,1.2v-0.3H200.18z"/>
		<path d="M183.38,106.23l3.4-2.9c0-0.1,0-0.2,0-0.4v-7.6c0.1-1.1,1.1-2,2.2-1.9l0,0h0.8l4.4-3.8c-0.2,0-0.5,0-0.7,0l0,0l-4.4,3.8
			v-0.2l4.1-3.5h-0.8l-3.4,2.9v-0.3l3.1-2.6h-0.8l-2.3,1.9v-0.2l2-1.7h-0.8l-1.2,1v-0.2l0.9-0.8h-0.8l-0.1,0.1v-0.1
			c-3.7,0-6.7,2.6-6.7,5.7v7.6c0,0.2,0,0.3,0,0.5l0.6-0.5h0.3l-0.8,0.7c0,0.2,0.1,0.4,0.1,0.6l1.5-1.3h0.3l-1.8,1.5
			c0.1,0.2,0.1,0.4,0.2,0.5l2.4-2h0.3l-2.6,2.2c0.1,0.2,0.2,0.3,0.3,0.5l3.1-2.6h0.2l-3.3,2.8L183.38,106.23z"/>
		<path d="M199.28,105.73l-3.6-3.1v0.5l3.4,2.9C199.18,105.93,199.28,105.83,199.28,105.73z"/>
		<path d="M199.88,104.43l-2.8-2.4h-0.6l3.3,2.8C199.88,104.63,199.88,104.53,199.88,104.43z"/>
		<path d="M188.28,104.83c-0.2-0.1-0.4-0.1-0.6-0.2l-3.2,2.7c0.1,0.1,0.3,0.2,0.4,0.3L188.28,104.83z"/>
		<path d="M187.58,104.53c-0.1-0.1-0.3-0.2-0.4-0.3l-3.2,2.7l0.4,0.4L187.58,104.53z"/>
		<path d="M187.08,104.03c-0.1-0.1-0.2-0.3-0.3-0.5l-3.3,2.7c0.1,0.1,0.2,0.3,0.4,0.4L187.08,104.03z"/>
		<path d="M197.88,107.33l-3.2-2.7c-0.1,0.1-0.3,0.1-0.4,0.2l3.3,2.8C197.68,107.43,197.78,107.33,197.88,107.33z"/>
		<path d="M199.68,105.13l-3.6-3.1h-0.4v0.2l3.8,3.2C199.48,105.33,199.58,105.23,199.68,105.13z"/>
		<path d="M198.38,106.83l-3.2-2.7c-0.1,0.1-0.2,0.2-0.2,0.2l3.2,2.7C198.18,106.93,198.28,106.93,198.38,106.83z"/>
		<path d="M198.88,106.33l-3.3-2.8c0,0.1-0.1,0.2-0.2,0.4l3.2,2.7C198.78,106.53,198.78,106.43,198.88,106.33z"/>
		<path d="M193.18,93.43h0.2c0.2,0,0.4,0,0.5,0l3.3-2.8c-0.2-0.1-0.3-0.2-0.5-0.3L193.18,93.43z"/>
		<polygon points="200.08,102.03 199.78,102.03 200.08,102.33 		"/>
		<path d="M198.98,92.23l-3.4,2.9c0,0.1,0,0.2,0,0.2v0.9h4.5v-1c0-0.1,0-0.3,0-0.4l-0.4,0.4h-0.3l0.7-0.6c0-0.2-0.1-0.4-0.1-0.6
			l-1.4,1.2h-0.3l1.7-1.4l-0.2-0.5l-2.3,1.9h-0.3l2.4-2.1c-0.1-0.2-0.2-0.3-0.2-0.5l-3,2.6h-0.3l3.2-2.7
			C199.18,92.53,199.08,92.33,198.98,92.23z"/>
		<path d="M195.38,94.43c0.1,0.2,0.2,0.3,0.2,0.5l3.3-2.8l-0.4-0.4L195.38,94.43z"/>
		<path d="M194.88,93.93c0.1,0.1,0.3,0.2,0.4,0.4l3.2-2.7c-0.1-0.1-0.3-0.2-0.4-0.3L194.88,93.93z"/>
		<path d="M192.18,93.43h0.8l3.7-3.1c-0.2,0-0.4-0.1-0.5-0.2L192.18,93.43z"/>
		<path d="M189.98,93.43h0.8l4.2-3.6l-0.6-0.1L189.98,93.43z"/>
		<path d="M191.08,93.43h0.8l4-3.4c-0.2-0.1-0.4-0.1-0.6-0.2L191.08,93.43z"/>
		<path d="M194.18,93.53c0.2,0.1,0.3,0.1,0.5,0.2l3.2-2.7c-0.2-0.1-0.3-0.2-0.4-0.3L194.18,93.53z"/>
		<path d="M206.68,91.33l3.2,2.7c0.1-0.1,0.2-0.2,0.3-0.2l-3.2-2.7L206.68,91.33z"/>
		<path d="M206.18,91.83l3.3,2.7c0.1-0.1,0.1-0.2,0.2-0.3l-3.2-2.7C206.38,91.63,206.28,91.73,206.18,91.83z"/>
		<path d="M205.78,92.43l3.5,3l0,0c0-0.1,0-0.3,0.1-0.4l-3.3-2.8C205.98,92.23,205.88,92.33,205.78,92.43z"/>
		<path d="M216.48,93.53c0.2,0,0.4,0.1,0.6,0.2l3.2-2.7c-0.1-0.1-0.3-0.2-0.4-0.3L216.48,93.53z"/>
		<path d="M207.28,90.93l3.2,2.7c0.1-0.1,0.3-0.1,0.4-0.1l-3.3-2.8C207.48,90.73,207.38,90.83,207.28,90.93z"/>
		<path d="M221.38,91.93c-0.1-0.1-0.2-0.3-0.4-0.4l-3.2,2.7c0.1,0.1,0.2,0.3,0.2,0.5L221.38,91.93z"/>
		<path d="M217.28,93.73c0.1,0.1,0.3,0.2,0.4,0.3l3.2-2.7c-0.1-0.1-0.2-0.2-0.4-0.3L217.28,93.73z"/>
		<path d="M208.28,90.33c-0.1,0-0.3,0.1-0.4,0.2l3.4,2.9h0.6l0.2-0.2l0.2,0.1l-0.1,0.1h0.8l0.2-0.2l0.2,0.1l-0.1,0.1h0.8l0.2-0.2
			l0.1,0.1l-0.1,0.1h0.8l0.2-0.2l0.1,0.1l-0.1,0.1h0.5c0.1,0,0.2,0,0.3,0l3.4-2.9c-0.2-0.1-0.3-0.2-0.5-0.2l-3.3,2.8l-0.1-0.1
			l0.2-0.2l3-2.6l-0.6-0.2l-2.6,2.2l-0.1-0.1l0.3-0.2l2.2-1.9l-0.6-0.2l-1.8,1.6l-0.1-0.1l0.3-0.2l1.4-1.2c-0.2-0.1-0.4-0.1-0.7-0.1
			l-0.8,0.7l-0.1-0.1l0.3-0.2l0.4-0.4h-0.9v0.1l-0.3,0.2l-0.1-0.1l0.2-0.1h-0.9l0,0l-0.2,0.2l-0.2-0.1l0.2-0.1h-0.8h0.1l-0.3,0.2
			l-0.2-0.1l0.2-0.1h-0.9h0.1l-0.3,0.2l-0.2-0.1l0.2-0.1h-0.9l0.3,0.3v0.2l0.1-0.1l0.2,0.1l-0.2,0.2l-0.8-0.7l-0.5,0.1l1.3,1.1v0.2
			l0.1-0.1l0.2,0.1l-0.3,0.2l-1.7-1.5c-0.2,0-0.3,0.1-0.4,0.1l2.1,1.8v0.2l0.1-0.1l0.2,0.1l-0.3,0.2l-2.5-2.1l-0.4,0.2l2.9,2.4v0.2
			l0.1-0.1l0.2,0.1l-0.3,0.2L208.28,90.33z M215.28,92.63l-0.1-0.1l0.3-0.2l0.1,0.1L215.28,92.63z M215.28,91.73l-0.1-0.1l0.2-0.2
			l0.1,0.1L215.28,91.73z M215.38,90.43l0.1,0.1l-0.2,0.2l-0.1-0.1L215.38,90.43z M214.78,93.03l-0.1-0.1l0.2-0.2l0.1,0.1
			L214.78,93.03z M214.78,92.13l-0.1-0.1l0.2-0.2l0.1,0.1L214.78,92.13z M214.78,91.23l-0.1-0.1l0.3-0.2l0.1,0.1L214.78,91.23z
			 M214.88,89.93l0.1,0.1l-0.3,0.2l-0.1-0.1L214.88,89.93z M214.28,92.63l-0.2-0.1l0.3-0.2l0.1,0.1L214.28,92.63z M214.28,91.73
			l-0.2-0.1l0.3-0.2l0.1,0.1L214.28,91.73z M214.28,90.43l0.1,0.1l-0.2,0.2l-0.2-0.1L214.28,90.43z M213.68,93.03l-0.2-0.1l0.3-0.2
			l0.2,0.1L213.68,93.03z M213.68,92.13l-0.2-0.1l0.2-0.2l0.2,0.1L213.68,92.13z M213.68,91.23l-0.2-0.1l0.2-0.2l0.2,0.1
			L213.68,91.23z M213.78,89.93l0.2,0.1l-0.3,0.2l-0.2-0.1L213.78,89.93z M213.18,92.63l-0.2-0.1l0.3-0.2l0.2,0.1L213.18,92.63z
			 M213.18,91.73l-0.2-0.1l0.3-0.2l0.2,0.1L213.18,91.73z M213.28,90.43l0.2,0.1l-0.3,0.2l-0.2-0.1L213.28,90.43z M212.58,93.03
			l-0.2-0.1l0.3-0.2l0.2,0.1L212.58,93.03z M212.58,92.13l-0.2-0.1l0.3-0.2l0.2,0.1L212.58,92.13z M212.58,91.23l-0.2-0.1l0.2-0.2
			l0.2,0.1L212.58,91.23z M212.68,89.93l0.2,0.1l-0.2,0.2l-0.2-0.1L212.68,89.93z M212.08,92.63l-0.2-0.1l0.2-0.2l0.2,0.1
			L212.08,92.63z M212.08,91.73l-0.2-0.1l0.2-0.2l0.2,0.1L212.08,91.73z M212.18,90.43l0.2,0.1l-0.3,0.2l-0.2-0.1L212.18,90.43z"/>
		<polygon points="209.28,101.83 209.28,101.33 204.78,97.53 204.78,98.03 		"/>
		<path d="M205.38,93.03l3.9,3.3v-0.5l-3.7-3.1C205.58,92.73,205.48,92.83,205.38,93.03z"/>
		<path d="M220.18,107.43l-3.2-2.7c-0.1,0-0.3,0.1-0.4,0.1l3.3,2.9L220.18,107.43z"/>
		<path d="M221.68,105.93l-3.5-2.9c0,0.1,0,0.3-0.1,0.4l3.3,2.8C221.58,106.13,221.68,106.03,221.68,105.93z"/>
		<polygon points="209.28,102.73 209.28,102.23 204.78,98.43 204.78,98.93 		"/>
		<path d="M220.78,107.03l-3.2-2.7c-0.1,0.1-0.2,0.2-0.3,0.2l3.2,2.7C220.58,107.13,220.68,107.03,220.78,107.03z"/>
		<path d="M221.28,106.53l-3.2-2.7c-0.1,0.1-0.1,0.2-0.2,0.3l3.2,2.7C221.08,106.63,221.18,106.63,221.28,106.53z"/>
		<path d="M222.68,103.63c0-0.2,0.1-0.3,0.1-0.5l-0.3-0.2h0.3v-7.6c0-0.2,0-0.4,0-0.6l-0.8,0.6h-0.3l1-0.9c0-0.2-0.1-0.4-0.2-0.6
			l-1.7,1.4h-0.3l1.9-1.6c-0.1-0.2-0.1-0.4-0.2-0.5l-2.5,2.1h-0.3l2.7-2.3c-0.1-0.2-0.2-0.3-0.3-0.5l-3.2,2.8h-0.3l3.4-2.9
			c-0.1-0.1-0.2-0.3-0.3-0.4l-3.3,2.8c0,0.2,0.1,0.3,0.1,0.5v7.6h0.4l3.3,2.8c0.1-0.1,0.1-0.2,0.2-0.3l-2.9-2.5h0.5l2.5,2.1
			c0-0.1,0.1-0.3,0.2-0.4l-2.1-1.8h0.5l1.7,1.4l0.1-0.4l-1.2-1h0.5L222.68,103.63z"/>
		<path d="M205.08,93.63l4.2,3.5v-0.5l-4-3.4C205.18,93.43,205.18,93.53,205.08,93.63z"/>
		<path d="M219.58,107.83l-3.5-3h-4.5c-1.1,0.1-2.1-0.8-2.2-1.9h-0.2l-4.3-3.6v0.5l3.7,3.1h-0.5l-3.2-2.6v0.5l2.6,2.2h-0.5l-2.1-1.8
			v0.5l1.5,1.3h-0.5l-1-0.9v0.5l0.4,0.4h-0.4c0,3.1,3,5.7,6.7,5.7h4.7l-0.2-0.2v-0.4l0.7,0.6c0.2,0,0.3,0,0.5,0l-1.1-1v-0.5l1.6,1.3
			c0.2,0,0.3-0.1,0.5-0.1l-2.1-1.7v-0.4l2.4,2l0.4-0.1l-2.8-2.4v-0.5l3.1,2.6L219.58,107.83z"/>
		<polygon points="209.28,100.93 209.28,100.43 204.78,96.63 204.78,97.13 		"/>
		<path d="M204.88,94.43l4.4,3.7v-0.5l-4.3-3.6C204.98,94.13,204.88,94.33,204.88,94.43z"/>
		<path d="M204.78,95.23l4.5,3.8v-0.5l-4.4-3.8C204.78,94.93,204.78,95.13,204.78,95.23z"/>
		<polygon points="209.28,99.93 209.28,99.43 204.78,95.63 204.78,96.13 		"/>
		<polygon points="233.98,99.03 233.98,98.33 229.48,102.13 229.48,102.83 		"/>
		<polygon points="233.98,95.33 233.98,94.63 229.48,98.53 229.48,99.13 		"/>
		<polygon points="242.58,102.93 242.98,103.23 242.98,102.93 		"/>
		<polygon points="235.68,89.63 236.18,90.03 236.18,89.63 		"/>
		<path d="M229.48,93.03l-2.2-1.9v0.5l2.1,1.8h0.1v0.2l0.3-0.2h0.1l-0.1-0.1l0.2-0.2l0.2,0.1l-0.8,0.6v0.7l1.4-1.2h0.2l-0.1-0.1
			l0.2-0.2l0.2,0.1l-1.9,1.5v0.7l2.4-2.1h0.2l-0.1-0.1l0.3-0.2l0.1,0.1l-2.9,2.5v0.7l3.5-3h0.2l-0.1-0.1l0.3-0.2l0.1,0.1l-4,3.4v0.7
			l4.5-3.8v-0.1h0.3l-0.3-0.2v-0.3l-0.2,0.2l-0.1-0.1l0.2-0.2l0.9,0.8h0.6l-1.4-1.2v-0.3l-0.2,0.2l-0.1-0.1l0.3-0.2l2,1.6h0.4v-0.2
			l-2.3-1.9v-0.3l-0.2,0.2l-0.1-0.1l0.3-0.2l2.3,2v-0.5l-2.2-1.9v-0.3l-0.2,0.1l-0.1-0.1l0.3-0.2l2.3,2v-0.6l-2.1-1.8h-0.7l-0.2,0.2
			l-0.1-0.1l0.1-0.1h-0.8l-0.2,0.2l-0.2-0.1l0.1-0.1h-0.8l-0.2,0.2l-0.2-0.1l0.1-0.1h-0.8l-0.2,0.2l-0.2-0.1h0.1h-0.7l0.3,0.2v0.1
			h0.1l0.2,0.1l-0.2,0.2l0,0l-0.8-0.6h-0.6l1.3,1.1v0.1h0.1l0.2,0.1l-0.2,0.2l0,0l-1.9-1.6h-0.4v0.2l2.2,1.9v0.1h0.1l0.2,0.1
			l-0.2,0.2v0.1l-2.2-1.9v0.5l2.2,1.9v0.1l0.1-0.1l0.2,0.1L229.48,93.03L229.48,93.03z M233.28,92.53l-0.1-0.1l0.3-0.2l0.1,0.1
			L233.28,92.53z M233.28,91.63l-0.1-0.1l0.3-0.2l0.1,0.1L233.28,91.63z M233.38,90.33l0.1,0.1l-0.2,0.2l-0.1-0.1L233.38,90.33z
			 M232.68,92.93l-0.1-0.1l0.2-0.2l0.1,0.1L232.68,92.93z M232.68,92.03l-0.1-0.1l0.2-0.2l0.1,0.1L232.68,92.03z M232.68,91.13
			l-0.1-0.1l0.3-0.2l0.1,0.1L232.68,91.13z M232.88,89.83l0.1,0.1l-0.3,0.2l-0.1-0.1L232.88,89.83z M232.18,92.53l-0.2-0.1l0.3-0.2
			l0.1,0.1L232.18,92.53z M232.18,91.53l-0.2-0.1l0.3-0.2l0.1,0.1L232.18,91.53z M232.28,90.33l0.1,0.1l-0.2,0.2l-0.2-0.1
			L232.28,90.33z M231.68,92.93l-0.2-0.1l0.3-0.2l0.2,0.1L231.68,92.93z M231.68,92.03l-0.2-0.1l0.2-0.2l0.2,0.1L231.68,92.03z
			 M231.68,91.13l-0.2-0.1l0.2-0.2l0.2,0.1L231.68,91.13z M231.78,89.83l0.2,0.1l-0.3,0.2l-0.2-0.1L231.78,89.83z M231.08,92.53
			l-0.2-0.1l0.3-0.2l0.2,0.1L231.08,92.53z M231.08,91.53l-0.2-0.1l0.3-0.2l0.2,0.1L231.08,91.53z M231.18,90.33l0.2,0.1l-0.3,0.2
			l-0.2-0.1L231.18,90.33z M230.58,92.93l-0.2-0.1l0.3-0.2l0.2,0.1L230.58,92.93z M230.58,92.03l-0.2-0.1l0.3-0.2l0.2,0.1
			L230.58,92.03z M230.58,91.13l-0.2-0.1l0.2-0.2l0.2,0.1L230.58,91.13z M230.68,89.83l0.2,0.1l-0.2,0.2l-0.2-0.1L230.68,89.83z
			 M229.98,92.53l-0.2-0.1l0.2-0.2l0.2,0.1L229.98,92.53z M229.98,91.53l-0.2-0.1l0.3-0.2l0.2,0.1L229.98,91.53z M230.08,90.33
			l0.2,0.1l-0.3,0.2l-0.2-0.1L230.08,90.33z"/>
		<path d="M240.38,102.93l2.2,1.9l-0.2,0.2l-0.1-0.1l0.1-0.1h-0.3l-2.2-1.9h-0.6l2.3,1.9l-0.3,0.2l-0.2-0.1l0.1-0.1h-0.2l-2.2-1.9
			h-0.3v0.2l2,1.7l-0.2,0.2l-0.2-0.1l0.1-0.1h-0.2l-1.5-1.2v0.5l0.9,0.8l-0.2,0.2l-0.1-0.1l0.1-0.1h-0.2l-0.4-0.3v0.3h-4.5l0,0l0,0
			h-0.4l0.3-0.3v-0.7l-1.1,1h-0.2l1.4-1.2v-0.7l-2.2,1.9h-0.3l2.5-2.1v-0.7l-3.3,2.8h-0.2l3.5-3v-0.7l-4.3,3.7h-2.4v3.8h11.7l0,0
			l0.2-0.2l0.2,0.1l-0.1,0.1h0.8l0,0l0.3-0.2l0.2,0.1l-0.2,0.1h0.9l0,0l0.3-0.2l0.2,0.1l-0.2,0.1h0.9l0,0l0.2-0.2l0.1,0.1l-0.1,0.1
			h0.5v-0.4l-0.1,0.1l-0.1-0.1l0.2-0.2v-0.8h-0.1l-0.1-0.1l0.2-0.2v-0.7l-0.1,0.1l-0.1-0.1l0.2-0.2v-0.7h-0.1l-0.1-0.1l0.2-0.2v-0.6
			l-2-1.7L240.38,102.93z M238.48,105.33l0.2-0.2l0.1,0.1l-0.2,0.2L238.48,105.33L238.48,105.33z M238.48,106.23l0.2-0.2l0.1,0.1
			l-0.2,0.2L238.48,106.23L238.48,106.23z M238.48,107.13l0.2-0.2l0.1,0.1l-0.2,0.2L238.48,107.13L238.48,107.13z M238.58,108.23
			l-0.1-0.1v-0.1l0.2-0.2l0.1,0.1L238.58,108.23z M239.18,105.63l0.2,0.1l-0.3,0.2l-0.1-0.1L239.18,105.63z M239.18,106.53l0.2,0.1
			l-0.3,0.2l-0.1-0.1L239.18,106.53z M239.08,107.73l-0.1-0.1l0.2-0.2l0.2,0.1L239.08,107.73z M239.78,105.13l0.2,0.1l-0.3,0.2
			l-0.2-0.1L239.78,105.13z M239.78,106.03l0.2,0.1l-0.3,0.2l-0.2-0.1L239.78,106.03z M239.78,106.93l0.2,0.1l-0.2,0.2l-0.2-0.1
			L239.78,106.93z M239.68,108.33l-0.2-0.1l0.2-0.2l0.2,0.1L239.68,108.33z M240.28,105.63l0.2,0.1l-0.2,0.2l-0.2-0.1L240.28,105.63
			z M240.28,106.63l0.2,0.1l-0.3,0.2l-0.2-0.1L240.28,106.63z M240.18,107.83l-0.2-0.1l0.3-0.2l0.2,0.1L240.18,107.83z
			 M240.88,105.23l0.2,0.1l-0.3,0.2l-0.2-0.1L240.88,105.23z M240.88,106.13l0.2,0.1l-0.3,0.2l-0.2-0.1L240.88,106.13z
			 M240.88,107.03l0.2,0.1l-0.3,0.2l-0.2-0.1L240.88,107.03z M240.78,108.33l-0.2-0.1l0.2-0.2l0.2,0.1L240.78,108.33z
			 M241.38,105.63l0.2,0.1l-0.2,0.2l-0.2-0.1L241.38,105.63z M241.38,106.63l0.2,0.1l-0.2,0.2l-0.2-0.1L241.38,106.63z
			 M241.28,107.83l-0.2-0.1l0.2-0.2l0.2,0.1L241.28,107.83z M241.88,105.23l0.1,0.1l-0.2,0.2l-0.2-0.1L241.88,105.23z
			 M241.88,106.13l0.1,0.1l-0.2,0.2l-0.2-0.1L241.88,106.13z M241.88,107.03l0.1,0.1l-0.2,0.2l-0.1-0.1L241.88,107.03z
			 M241.78,108.33l-0.2-0.1l0.3-0.2l0.1,0.1L241.78,108.33z M242.38,107.83l-0.1-0.1l0.2-0.2l0.1,0.1L242.38,107.83z M242.38,106.93
			l-0.1-0.1l0.3-0.2l0.1,0.1L242.38,106.93z M242.38,106.03l-0.1-0.1l0.3-0.2l0.1,0.1L242.38,106.03z"/>
		<polygon points="241.48,102.93 242.98,104.13 242.98,103.73 241.98,102.93 		"/>
		<polygon points="234.68,89.63 236.18,90.93 236.18,90.43 235.18,89.63 		"/>
		<polygon points="233.98,93.73 229.48,97.53 229.48,98.23 233.98,94.43 		"/>
		<polygon points="233.98,100.83 233.98,100.23 229.48,104.03 229.48,104.73 		"/>
		<polygon points="228.28,93.43 228.88,93.43 227.28,92.03 227.28,92.53 		"/>
		<polygon points="233.98,99.93 233.98,99.23 229.48,103.13 229.48,103.73 		"/>
		<polygon points="227.78,93.43 227.28,92.93 227.28,93.43 		"/>
		<polygon points="233.98,96.23 233.98,95.63 229.48,99.43 229.48,100.13 		"/>
		<polygon points="233.98,98.13 233.98,97.43 229.48,101.23 229.48,101.93 		"/>
		<polygon points="233.98,97.13 233.98,96.53 229.48,100.33 229.48,101.03 		"/>
		<path d="M259.98,93.63c0.1,0.1,0.3,0.2,0.4,0.3l3.2-2.7c-0.1-0.1-0.3-0.2-0.4-0.3L259.98,93.63z"/>
		<path d="M247.78,93.63l4.2,3.5v-0.5l-4-3.4C247.88,93.33,247.88,93.43,247.78,93.63z"/>
		<path d="M248.18,92.93l3.9,3.3v-0.5l-3.6-3.1L248.18,92.93z"/>
		<path d="M248.48,92.33l3.5,3l0,0c0-0.1,0-0.3,0.1-0.4l-3.3-2.8C248.68,92.13,248.58,92.23,248.48,92.33z"/>
		<path d="M254.98,89.53L254.98,89.53l-0.2,0.3l-0.2-0.1l0.2-0.1h-0.9l0.3,0.3v0.2l0.1-0.1l0.2,0.1l-0.2,0.2l-0.8-0.7l-0.5,0.1
			l1.3,1.1v0.2l0.1-0.1l0.2,0.1l-0.3,0.2l-1.7-1.5c-0.2,0-0.3,0.1-0.5,0.1l2.1,1.8v0.2l0.1-0.1l0.2,0.1l-0.3,0.2l-2.5-2.1
			c-0.1,0-0.3,0.1-0.4,0.2l2.9,2.4v0.2l0.1-0.1l0.2,0.1l-0.3,0.2l-3.3-2.7c-0.1,0-0.3,0.1-0.4,0.2l3.4,2.9h0.6l0.2-0.2l0.2,0.1
			l-0.1,0.1h0.8l0.2-0.2l0.2,0.1l-0.1,0.1h0.8l0.2-0.2l0.1,0.1l-0.1,0.1h0.8l0.2-0.2l0.1,0.1l-0.1,0.1h0.5c0.1,0,0.2,0,0.3,0
			l3.4-2.9c-0.2-0.1-0.3-0.2-0.5-0.2l-3.3,2.8l-0.1-0.1l0.2-0.2l3-2.6l-0.6-0.2l-2.6,2.2l-0.1-0.1l0.3-0.2l2.2-1.9l-0.6-0.2
			l-1.8,1.5l-0.1-0.1l0.3-0.2l1.4-1.2c-0.2-0.1-0.4-0.1-0.7-0.1l-0.8,0.7l-0.1-0.1l0.2-0.2l0.5-0.4h-0.9l0,0l-0.3,0.2l-0.1-0.1
			l0.1-0.1h-0.9l0,0l-0.2,0.2l-0.2-0.1l0.2-0.1h-0.9h0.1l-0.2,0.2l-0.2-0.1l0.2-0.1L254.98,89.53z M254.88,90.43l0.2,0.1l-0.3,0.2
			l-0.2-0.1L254.88,90.43z M254.88,91.33l0.2,0.1l-0.2,0.2l-0.2-0.1L254.88,91.33z M254.78,92.53l-0.2-0.1l0.2-0.2l0.2,0.1
			L254.78,92.53z M258.08,92.53l-0.1-0.1l0.3-0.2l0.1,0.1L258.08,92.53z M258.08,91.63l-0.1-0.1l0.2-0.2l0.1,0.1L258.08,91.63z
			 M258.18,90.43l0.1,0.1l-0.3,0.2l-0.1-0.1L258.18,90.43z M257.48,93.03l-0.1-0.1l0.2-0.2l0.1,0.1L257.48,93.03z M257.48,92.13
			l-0.1-0.1l0.2-0.2l0.1,0.1L257.48,92.13z M257.48,91.23l-0.1-0.1l0.3-0.2l0.1,0.1L257.48,91.23z M257.68,89.93l0.1,0.1l-0.3,0.2
			l-0.1-0.1L257.68,89.93z M256.98,92.53l-0.2-0.1l0.3-0.2l0.1,0.1L256.98,92.53z M256.98,91.63l-0.2-0.1l0.3-0.2l0.1,0.1
			L256.98,91.63z M257.08,90.43l0.1,0.1l-0.2,0.2l-0.2-0.1L257.08,90.43z M256.48,93.03l-0.2-0.1l0.2-0.2l0.2,0.1L256.48,93.03z
			 M256.48,92.13l-0.2-0.1l0.2-0.2l0.2,0.1L256.48,92.13z M256.48,91.23l-0.2-0.1l0.2-0.2l0.2,0.1L256.48,91.23z M256.58,89.93
			l0.2,0.1l-0.3,0.2l-0.2-0.1L256.58,89.93z M255.88,92.53l-0.2-0.1l0.3-0.2l0.2,0.1L255.88,92.53z M255.88,91.63l-0.2-0.1l0.3-0.2
			l0.2,0.1L255.88,91.63z M255.98,90.43l0.2,0.1l-0.3,0.2l-0.2-0.1L255.98,90.43z M255.48,89.93l0.2,0.1l-0.3,0.2l-0.2-0.1
			L255.48,89.93z M255.48,90.83l0.2,0.1l-0.2,0.2l-0.2-0.1L255.48,90.83z M255.48,91.73l0.2,0.1l-0.3,0.2l-0.2-0.1L255.48,91.73z
			 M255.38,93.03l-0.2-0.1l0.3-0.2l0.2,0.1L255.38,93.03z"/>
		<path d="M264.18,91.93l-3.3,2.8c0,0.2,0.1,0.3,0.1,0.5v7.6h0.4l3.3,2.7c0.1-0.1,0.1-0.2,0.2-0.3l-2.9-2.5h0.5l2.5,2.1
			c0-0.1,0.1-0.3,0.2-0.4l-2.1-1.8h0.5l1.7,1.4l0.1-0.4l-1.2-1h0.5l0.8,0.7c0-0.2,0.1-0.3,0.1-0.5l-0.3-0.2h0.3v-7.4
			c0-0.2,0-0.4,0-0.6l-0.9,0.6h-0.3l1-0.9c0-0.2-0.1-0.4-0.2-0.6l-1.7,1.4h-0.3l1.9-1.6c-0.1-0.2-0.1-0.4-0.2-0.5l-2.5,2.1h-0.3
			l2.6-2.3c-0.1-0.2-0.2-0.3-0.2-0.5l-3.2,2.8h-0.3l3.4-2.9C264.38,92.23,264.28,92.13,264.18,91.93z"/>
		<path d="M248.98,91.73l3.3,2.8c0-0.1,0.1-0.2,0.2-0.3l-3.2-2.7C249.08,91.53,248.98,91.63,248.98,91.73z"/>
		<path d="M247.58,94.33l4.4,3.7v-0.5l-4.3-3.6C247.68,94.03,247.68,94.23,247.58,94.33z"/>
		<path d="M259.28,93.43c0.2,0,0.4,0.1,0.6,0.2l3.2-2.7c-0.1-0.1-0.3-0.2-0.4-0.3L259.28,93.43z"/>
		<path d="M260.58,94.13c0.1,0.1,0.2,0.3,0.2,0.5l3.3-2.8c-0.1-0.1-0.2-0.3-0.4-0.4L260.58,94.13z"/>
		<path d="M247.58,95.13l4.5,3.8v-0.5l-4.5-3.8C247.58,94.83,247.58,95.03,247.58,95.13z"/>
		<path d="M259.18,104.73l3.3,2.9l0.4-0.2l-3.2-2.7C259.58,104.63,259.38,104.73,259.18,104.73z"/>
		<path d="M260.58,104.03l3.2,2.7c0.1-0.1,0.2-0.2,0.2-0.3l-3.2-2.7C260.68,103.83,260.58,103.93,260.58,104.03z"/>
		<path d="M259.98,104.43l3.2,2.7c0.1-0.1,0.2-0.2,0.3-0.2l-3.1-2.7C260.28,104.33,260.08,104.43,259.98,104.43z"/>
		<path d="M258.78,104.73h-4.5c-1.1,0.1-2.1-0.8-2.2-1.9h-0.2l-4.3-3.6v0.5l3.7,3.1h-0.6l-3.2-2.7v0.5l2.6,2.2h-0.5l-2.1-1.8v0.5
			l1.5,1.3h-0.5l-1-0.8v0.5l0.4,0.4h-0.4c0,3.1,3,5.7,6.7,5.7h4.7l-0.2-0.2v-0.4l0.7,0.6c0.2,0,0.3,0,0.5,0l-1.1-1v-0.4l1.6,1.3
			c0.2,0,0.3-0.1,0.5-0.1l-2-1.7v-0.4l2.4,2c0.2-0.1,0.3-0.1,0.4-0.1l-2.8-2.4v-0.6l3.1,2.7l0.4-0.2L258.78,104.73L258.78,104.73z"
			/>
		<path d="M264.48,105.83l-3.5-2.9c0,0.1,0,0.3-0.1,0.4l3.3,2.8C264.28,106.13,264.38,106.03,264.48,105.83z"/>
		<polygon points="247.58,95.63 247.58,96.13 251.98,99.93 251.98,99.43 		"/>
		<polygon points="251.98,102.63 251.98,102.13 247.58,98.33 247.58,98.83 		"/>
		<polygon points="251.98,101.73 251.98,101.23 247.58,97.43 247.58,97.93 		"/>
		<polygon points="251.98,100.83 251.98,100.33 247.58,96.53 247.58,97.03 		"/>
		<path d="M249.48,91.33l3.2,2.7c0.1-0.1,0.2-0.2,0.3-0.2l-3.2-2.7L249.48,91.33z"/>
		<path d="M249.98,90.83l3.2,2.7c0.1-0.1,0.3-0.1,0.4-0.1l-3.3-2.8C250.28,90.73,250.08,90.73,249.98,90.83z"/>
		<polygon points="278.48,104.73 278.98,105.23 278.98,104.73 		"/>
		<polygon points="277.38,104.73 278.98,106.13 278.98,105.63 277.88,104.73 		"/>
		<polygon points="271.58,108.53 270.08,107.23 270.08,107.73 270.98,108.53 		"/>
		<polygon points="270.48,93.33 269.98,92.93 269.98,93.33 		"/>
		<path d="M272.28,104.73L272.28,104.73L272.28,104.73z"/>
		<polygon points="270.48,108.53 270.08,108.13 270.08,108.53 		"/>
		<polygon points="285.78,101.53 285.48,101.03 282.28,103.83 282.58,104.23 		"/>
		<polygon points="271.58,93.33 269.98,92.03 269.98,92.53 270.98,93.33 		"/>
		<polygon points="287.48,103.93 286.68,104.73 286.38,104.73 287.38,103.83 287.08,103.43 285.58,104.73 285.28,104.73
			286.98,103.23 286.68,102.83 284.48,104.73 284.18,104.73 286.58,102.63 286.28,102.23 283.38,104.73 283.08,104.73
			286.18,102.03 285.88,101.63 282.68,104.43 282.78,104.73 280.98,104.73 280.98,108.53 289.98,108.53 289.98,104.73
			287.98,104.73 287.88,104.53 287.68,104.73 287.48,104.73 287.78,104.43 		"/>
		<path d="M270.38,89.53h-0.3v0.2l2.2,1.9v0.2l0.1-0.1l0.1,0.1l-0.2,0.2l-2.2-1.9v0.5l2.2,1.9v0.2l0.1-0.1l0.1,0.1l-0.3,0.2
			l-2.2-1.9v0.5l2,1.7h0.2v0.4l0.7-0.6l0.1,0.1l-0.8,0.7v0.7l1.8-1.5l0.1,0.1l-1.9,1.6v0.7l2.9-2.4l0.1,0.1l-3,2.5v0.7l3.9-3.3
			l0.2,0.1l-4,3.5v0.7l4.5-3.8v-0.2h0.2l-0.2-0.2v-0.2l-0.1,0.1l-0.2-0.1l0.3-0.2l0.8,0.7h0.6l-1.3-1.1v-0.2l-0.1,0.1l-0.2-0.1
			l0.3-0.2l1.9,1.6h0.6l-2.4-2v-0.2l-0.1,0.1l-0.2-0.1l0.2-0.2l3,2.5h0.6l-3.5-3v-0.2l-0.1,0.1l-0.2-0.1l0.2-0.2l3.9,3.3v0.2
			c1.3-0.2,2.4,0.7,2.6,1.9c0.2,1.3-0.7,2.4-1.9,2.6c-0.2,0-0.5,0-0.7,0h-3.8v-0.4l-0.5,0.4h-0.3l0.8-0.7v-0.7l-1.6,1.3h-0.3
			l1.8-1.5v-0.7l-2.6,2.2h-0.3l2.9-2.5v-0.7l-3.7,3.2h-0.3l4-3.4v-0.7l-4.5,3.8v4.4l0.3-0.3h0.3l-0.6,0.5v0.7l1.4-1.2h0.3l-1.7,1.4
			v0.7l2.5-2.1h0.3l-2.8,2.4v0.7l0,0l3.6-3.1h0.3l-3.6,3.1h-0.6l0.3,0.3v0.4l-0.8-0.7h-0.6l1.4,1.2v0.4l-1.9-1.6h-0.4v0.2l2.2,1.9
			v0.5l-2.2-1.9v0.5l2.2,1.9v0.4l-2.2-1.9v0.5l2.1,1.8h4.9l-0.3-0.2l0,0v-0.4l0.8,0.6h0.6l-1.4-1.2l0,0v-0.4l1.9,1.6h0.4v-0.2
			l-2.3-1.9l0,0v-0.4l2.2,1.9v-0.5l-2.3-1.9l0,0v-0.7l2.2,1.9v-0.5l-2.1-1.8h-0.3l0.2-0.1v-0.7l-1,0.8h-0.3l1.2-1.1v-0.7l-2,1.7
			h-0.3l2.3-2v-0.7l-3.1,2.7h-0.1l3.4-2.9v-0.2h4l0.2,0.2l0.3-0.3l0,0c0.1,0,0.2,0,0.3-0.1l-0.5,0.5l0.3,0.4l1.3-1.1
			c0.1,0,0.3-0.1,0.4-0.1l-1.6,1.4l0.3,0.4l3.1-2.7c1.7-1,2.8-2.9,2.8-4.9c0-3.4-3.2-6.1-7.2-6.1v0.4l-0.5-0.4h-0.6l1.1,0.9v0.4
			l-1.5-1.3h-0.6l2.1,1.8v0.4l-2.6-2.2h-0.5l3.2,2.7v0.4l-3.7-3.1h-0.6l0.1,0.1l-0.3,0.2l-0.2-0.1l0.2-0.1h-0.9l0.1,0.1l-0.3,0.2
			l-0.1-0.1l0.1-0.1h-0.9l0.1,0.1l-0.2,0.2l-0.1-0.1l0.2-0.1h-0.9h0.1l-0.2,0.2l-0.1-0.1l0.2-0.1h-0.9l0.3,0.3v0.2l0.1-0.1l0.1,0.1
			l-0.2,0.2l-0.8-0.7h-0.6l1.4,1.2v0.2l0.1-0.1l0.1,0.1l-0.2,0.2L270.38,89.53z M276.38,107.93l-0.2-0.1l0.3-0.2l0.2,0.1
			L276.38,107.93z M276.38,107.03l-0.2-0.1l0.3-0.2l0.2,0.1L276.38,107.03z M276.58,105.93l-0.2,0.2l-0.2-0.1l0.2-0.2L276.58,105.93
			z M276.48,104.93l0.2,0.1l-0.2,0.2l-0.2-0.1L276.48,104.93z M275.78,108.43l-0.1-0.1l0.2-0.2l0.2,0.1L275.78,108.43z
			 M275.78,107.53l-0.1-0.1l0.2-0.2l0.2,0.1L275.78,107.53z M275.78,106.63l-0.1-0.1l0.2-0.2l0.2,0.1L275.78,106.63z M275.88,105.33
			l0.2,0.1l-0.3,0.2l-0.1-0.1L275.88,105.33z M275.28,108.03l-0.1-0.1l0.2-0.2l0.1,0.1L275.28,108.03z M275.28,107.13l-0.1-0.1
			l0.3-0.2l0.1,0.1L275.28,107.13z M275.58,105.93l-0.3,0.2l-0.1-0.1l0.3-0.2L275.58,105.93z M275.38,104.93l0.1,0.1l-0.2,0.2
			l-0.1-0.1L275.38,104.93z M274.78,108.53l-0.1-0.1l0.3-0.2l0.1,0.1L274.78,108.53z M274.78,107.63l-0.1-0.1l0.3-0.2l0.1,0.1
			L274.78,107.63z M274.78,106.63l-0.1-0.1l0.2-0.2l0.1,0.1L274.78,106.63z M274.88,105.43l0.1,0.1l-0.2,0.2l-0.1-0.1L274.88,105.43
			z M274.18,108.03l-0.1-0.1l0.2-0.2l0.1,0.1L274.18,108.03z M274.18,107.13l-0.1-0.1l0.2-0.2l0.1,0.1L274.18,107.13z
			 M274.48,105.93l-0.3,0.2l-0.1-0.1l0.2-0.2L274.48,105.93z M274.28,104.93l0.1,0.1l-0.3,0.2l-0.1-0.1L274.28,104.93z
			 M273.68,108.53l-0.1-0.1l0.2-0.2l0.1,0.1L273.68,108.53z M273.68,107.63l-0.1-0.1l0.3-0.2l0.1,0.1L273.68,107.63z M273.68,106.73
			l-0.1-0.1l0.3-0.2l0.1,0.1L273.68,106.73z M273.78,105.43l0.1,0.1l-0.2,0.2l-0.1-0.1L273.78,105.43z M272.68,105.43l0.1,0.1
			l-0.3,0.2l-0.1-0.1L272.68,105.43z M272.68,106.33l0.1,0.1l-0.3,0.2l-0.1-0.1L272.68,106.33z M272.68,107.23l0.1,0.1l-0.3,0.2
			l-0.1-0.1L272.68,107.23z M272.58,108.53l-0.2-0.2l0.2-0.2l0.1,0.1L272.58,108.53z M273.28,104.93l0.1,0.1l-0.3,0.2l-0.1-0.1
			L273.28,104.93z M273.28,105.93l0.1,0.1l-0.2,0.2l-0.1-0.1L273.28,105.93z M273.28,106.83l0.1,0.1l-0.2,0.2l-0.1-0.1
			L273.28,106.83z M273.08,108.03l-0.1-0.1l0.3-0.2l0.1,0.1L273.08,108.03z M276.08,92.63l-0.2-0.1l0.2-0.2l0.2,0.1L276.08,92.63z
			 M276.08,91.73l-0.2-0.1l0.3-0.2l0.2,0.1L276.08,91.73z M276.18,90.43l0.2,0.1l-0.3,0.2l-0.2-0.1L276.18,90.43z M275.58,93.13
			l-0.1-0.1l0.2-0.2l0.2,0.1L275.58,93.13z M275.58,92.13l-0.1-0.1l0.2-0.2l0.2,0.1L275.58,92.13z M275.58,91.23l-0.1-0.1l0.2-0.2
			l0.2,0.1L275.58,91.23z M275.68,90.03l0.2,0.1l-0.2,0.2l-0.1-0.1L275.68,90.03z M274.98,92.63l-0.1-0.1l0.3-0.2l0.1,0.1
			L274.98,92.63z M274.98,91.73l-0.1-0.1l0.2-0.2l0.1,0.1L274.98,91.73z M275.18,90.43l0.1,0.1l-0.2,0.2l-0.1-0.1L275.18,90.43z
			 M274.48,93.13l-0.1-0.1l0.2-0.2l0.1,0.1L274.48,93.13z M274.48,92.13l-0.1-0.1l0.2-0.2l0.1,0.1L274.48,92.13z M274.48,91.23
			l-0.1-0.1l0.3-0.2l0.1,0.1L274.48,91.23z M274.58,90.03l0.1,0.1l-0.3,0.2l-0.1-0.1L274.58,90.03z M273.98,92.63l-0.1-0.1l0.3-0.2
			l0.1,0.1L273.98,92.63z M273.98,91.73l-0.1-0.1l0.3-0.2l0.1,0.1L273.98,91.73z M274.08,90.43l0.1,0.1l-0.2,0.2l-0.1-0.1
			L274.08,90.43z M273.38,93.13l-0.1-0.1l0.3-0.2l0.1,0.1L273.38,93.13z M273.38,92.13l-0.1-0.1l0.2-0.2l0.1,0.1L273.38,92.13z
			 M273.38,91.23l-0.1-0.1l0.2-0.2l0.1,0.1L273.38,91.23z M273.58,90.03l0.1,0.1l-0.3,0.2l-0.1-0.1L273.58,90.03z M272.88,92.63
			l-0.1-0.1l0.3-0.2l0.1,0.1L272.88,92.63z M272.88,91.73l-0.1-0.1l0.3-0.2l0.1,0.1L272.88,91.73z M272.98,90.43l0.1,0.1l-0.3,0.2
			l-0.1-0.1L272.98,90.43z"/>
		<polygon points="281.78,103.23 282.18,103.73 285.38,100.93 285.08,100.43 		"/>
		<polygon points="316.08,104.63 311.58,108.43 312.38,108.43 316.48,105.03 316.48,104.63 		"/>
		<polygon points="312.68,108.43 313.48,108.43 316.48,105.93 316.48,105.23 		"/>
		<path d="M294.48,104.73v0.6l0.2-0.2l0.2,0.1l-0.3,0.2l-0.1-0.1v0.9l0.2-0.2l0.2,0.1l-0.2,0.2l-0.1-0.1v0.8l0.2-0.2l0.2,0.1
			l-0.2,0.2l-0.1-0.1v0.8l0.2-0.2l0.2,0.1l-0.2,0.2l-0.1-0.1v0.4h0.5l0.2-0.2l0.2,0.1h-0.1h0.8l0.2-0.2l0.2,0.1l-0.1,0.1h0.8
			l0.2-0.2l0.1,0.1l-0.1,0.1h0.8l0.2-0.2l0.1,0.1h-0.1h0.8l0.2-0.2l0.1,0.1h-0.1h0.8l0.2-0.2l0.1,0.1l-0.1,0.1h0.8l0.2-0.2l0.2,0.1
			l-0.1,0.1h0.8l0.2-0.2l0.2,0.1l-0.1,0.1h0.5v-0.5l-0.2,0.2l-0.2-0.1l0.3-0.2h0.1v-0.8l-0.2,0.2l-0.2-0.1l0.2-0.2l0.1,0.1v-0.8
			l-0.2,0.2l-0.2-0.1l0.2-0.2l0.1,0.1v-0.8l-0.2,0.2l-0.2-0.1l0.2-0.2l0.1,0.1v-0.5h-0.6l0.1,0.1l-0.3,0.2l-0.2-0.1l0.2-0.2h-1
			l0.1,0.1l-0.3,0.2l-0.2-0.1l0.2-0.2h-0.3l0.7-1.9h0.1l4.5-3.8h-0.8l-3.5,3l0.1-0.4l3.1-2.6h-0.3l-1.9,1.7l0.1-0.4l1.5-1.3h-0.8
			l-0.4,0.3l2.1-6h0.2l2,5.7h-0.7l-4.5,3.8h0.8l4.4-3.8l0.1,0.2l-4.2,3.6h0.8l3.6-3l0.1,0.2l-3.4,2.9h0.8l2.8-2.4l0.1,0.2l-2.5,2.2
			h0.8l1.9-1.6l0.1,0.2l-1.7,1.5h0.8l1.1-0.9l0.1,0.2l-0.9,0.7h0.8l0.2-0.2l0.7,2.1h-0.1l-2,1.8v0.7l2.9-2.4h0.3l-3.1,2.5v0.7
			l3.9-3.4h0.3l-4.2,3.6v0.2h0.5l4.5-3.8h0.3l-4.4,3.8h0.8l4.5-3.8h0.3l-4.5,3.8h0.8l4.5-3.8h-0.4l-5.4-15.2h-6.9l-5.4,15.2h-0.3
			l0.1,0.1l-0.2,0.2l-0.2-0.1l0.2-0.2h-1l0.1,0.1l-0.2,0.2l-0.2-0.1l0.2-0.2L294.48,104.73z M302.78,107.73l-0.2-0.1l0.2-0.2
			l0.2,0.1L302.78,107.73z M302.78,106.83l-0.2-0.1l0.3-0.2l0.2,0.1L302.78,106.83z M302.88,105.53l0.2,0.1l-0.3,0.2l-0.2-0.1
			L302.88,105.53z M302.18,108.13l-0.2-0.1l0.3-0.2l0.2,0.1L302.18,108.13z M302.18,107.23l-0.2-0.1l0.3-0.2l0.2,0.1L302.18,107.23z
			 M302.18,106.33l-0.2-0.1l0.3-0.2l0.1,0.1L302.18,106.33z M302.28,105.03l0.2,0.1l-0.2,0.2l-0.2-0.1L302.28,105.03z
			 M301.68,107.73l-0.2-0.1l0.2-0.2l0.2,0.1L301.68,107.73z M301.68,106.83l-0.2-0.1l0.2-0.2l0.2,0.1L301.68,106.83z M301.78,105.53
			l0.2,0.1l-0.2,0.2l-0.2-0.1L301.78,105.53z M301.08,108.13l-0.1-0.1l0.2-0.2l0.2,0.1L301.08,108.13z M301.08,107.23l-0.1-0.1
			l0.2-0.2l0.2,0.1L301.08,107.23z M301.08,106.33l-0.1-0.1l0.2-0.2l0.2,0.1L301.08,106.33z M301.18,105.03l0.2,0.1l-0.3,0.2
			l-0.1-0.1L301.18,105.03z M300.58,107.73l-0.1-0.1l0.3-0.2l0.1,0.1L300.58,107.73z M300.58,106.83l-0.1-0.1l0.3-0.2l0.1,0.1
			L300.58,106.83z M300.58,105.83l-0.1-0.1l0.2-0.2l0.1,0.1L300.58,105.83z M300.68,104.63h0.1l0.1,0.1l-0.2,0.2l-0.1-0.1
			L300.68,104.63z M300.08,108.13l-0.1-0.1l0.3-0.2l0.1,0.1L300.08,108.13z M300.08,107.23l-0.1-0.1l0.2-0.2l0.1,0.1L300.08,107.23z
			 M300.08,106.33l-0.1-0.1l0.2-0.2l0.1,0.1L300.08,106.33z M300.18,105.03l0.1,0.1l-0.3,0.2l-0.1-0.1L300.18,105.03z
			 M299.48,107.73l-0.1-0.1l0.3-0.2l0.1,0.1L299.48,107.73z M299.48,106.83l-0.1-0.1l0.3-0.2l0.1,0.1L299.48,106.83z M299.48,105.83
			l-0.1-0.1l0.3-0.2l0.1,0.1L299.48,105.83z M299.58,104.63h0.1l0.1,0.1l-0.2,0.2l-0.1-0.1L299.58,104.63z M298.98,108.13l-0.1-0.1
			l0.3-0.2l0.1,0.1L298.98,108.13z M298.98,107.23l-0.1-0.1l0.3-0.2l0.1,0.1L298.98,107.23z M298.98,106.33l-0.1-0.1l0.2-0.2
			l0.1,0.1L298.98,106.33z M299.08,105.03l0.1,0.1l-0.3,0.2l-0.1-0.1L299.08,105.03z M298.38,107.73l-0.1-0.1l0.2-0.2l0.1,0.1
			L298.38,107.73z M298.38,106.83l-0.1-0.1l0.3-0.2l0.1,0.1L298.38,106.83z M298.38,105.83l-0.1-0.1l0.3-0.2l0.1,0.1L298.38,105.83z
			 M298.48,104.63h0.1l0.1,0.1l-0.2,0.2l-0.1-0.1L298.48,104.63z M297.88,108.23l-0.1-0.1l0.3-0.2l0.1,0.1L297.88,108.23z
			 M297.88,107.23l-0.1-0.1l0.3-0.2l0.1,0.1L297.88,107.23z M297.88,106.33l-0.1-0.1l0.2-0.2l0.1,0.1L297.88,106.33z M297.98,105.13
			l0.1,0.1l-0.2,0.2l-0.1-0.1L297.98,105.13z M297.38,107.73l-0.2-0.1l0.2-0.2l0.1,0.1L297.38,107.73z M297.38,106.83l-0.2-0.1
			l0.2-0.2l0.1,0.1L297.38,106.83z M297.38,105.83l-0.2-0.1l0.3-0.2l0.1,0.1L297.38,105.83z M297.38,104.63h0.1l0.1,0.1l-0.2,0.2
			l-0.2-0.1L297.38,104.63z M296.78,108.23l-0.1-0.1l0.2-0.2l0.2,0.1L296.78,108.23z M296.78,107.23l-0.2-0.1l0.3-0.2l0.2,0.1
			L296.78,107.23z M296.78,106.33l-0.2-0.1l0.3-0.2l0.2,0.1L296.78,106.33z M296.88,105.13l0.2,0.1l-0.3,0.2l-0.2-0.1L296.88,105.13
			z M296.28,107.73l-0.2-0.1l0.3-0.2l0.2,0.1L296.28,107.73z M296.28,106.83l-0.2-0.1l0.2-0.2l0.2,0.1L296.28,106.83z
			 M296.38,105.53l0.2,0.1l-0.2,0.2l-0.2-0.1L296.38,105.53z M295.68,108.23l-0.2-0.1l0.2-0.2l0.2,0.1L295.68,108.23z
			 M295.68,107.23l-0.2-0.1l0.3-0.2l0.2,0.1L295.68,107.23z M295.68,106.33l-0.2-0.1l0.3-0.2l0.2,0.1L295.68,106.33z M295.78,105.13
			l0.2,0.1l-0.3,0.2l-0.2-0.1L295.78,105.13z M295.18,107.73l-0.2-0.1l0.3-0.2l0.2,0.1L295.18,107.73z M295.18,106.83l-0.2-0.1
			l0.3-0.2l0.2,0.1L295.18,106.83z M295.28,105.53l0.2,0.1l-0.2,0.2l-0.2-0.1L295.28,105.53z"/>
		<polygon points="309.28,104.63 308.48,104.63 307.48,105.53 307.48,106.23 		"/>
		<polygon points="310.48,108.43 311.28,108.43 315.78,104.63 314.98,104.63 		"/>
		<polygon points="313.78,108.43 314.58,108.43 316.48,106.83 316.48,106.13 		"/>
		<polygon points="314.88,108.43 315.68,108.43 316.48,107.73 316.48,107.03 		"/>
		<polygon points="307.48,105.23 308.18,104.63 307.48,104.63 		"/>
		<polygon points="316.48,108.43 316.48,108.03 315.88,108.43 		"/>
		<path d="M333.98,95.43c0.1,0.2,0.2,0.3,0.2,0.5l3.4-2.9c-0.1-0.1-0.2-0.3-0.3-0.4L333.98,95.43z"/>
		<path d="M333.08,94.33c0.1,0.1,0.3,0.2,0.4,0.4l3.2-2.7l-0.4-0.4L333.08,94.33z"/>
		<path d="M333.58,94.83c0.1,0.1,0.2,0.3,0.3,0.4l3.2-2.8c-0.1-0.1-0.2-0.3-0.4-0.4L333.58,94.83z"/>
		<polygon points="323.18,94.33 323.18,94.83 327.68,98.63 327.68,98.13 		"/>
		<polygon points="323.18,93.43 323.18,93.93 327.68,97.73 327.68,97.23 		"/>
		<path d="M334.28,96.13c0,0.2,0.1,0.4,0.1,0.6l3.6-3c-0.1-0.2-0.2-0.3-0.3-0.4L334.28,96.13z"/>
		<path d="M331.08,93.33c0.2,0,0.4,0.1,0.6,0.2l3.3-2.8c-0.2-0.1-0.3-0.2-0.5-0.3L331.08,93.33z"/>
		<path d="M332.58,93.93c0.1,0.1,0.3,0.2,0.4,0.3l3.2-2.7c-0.1-0.1-0.3-0.2-0.4-0.3L332.58,93.93z"/>
		<path d="M330.08,93.23c0.2,0,0.5,0,0.7,0.1l3.5-2.9c-0.2-0.1-0.4-0.2-0.5-0.2L330.08,93.23z"/>
		<path d="M331.88,93.53l0.5,0.2l3.2-2.7c-0.1-0.1-0.3-0.2-0.5-0.3L331.88,93.53z"/>
		<path d="M327.78,89.43h-5.1l-1.7,1.5v0.7l2.2-1.9v0.2l-2.2,1.9v0.7l2.2-1.9v0.2l-2.2,1.9v0.5h0.2l2.1-1.8v0.2l-1.8,1.5h0.8l1-0.8
			v0.2l-0.7,0.6h1l4.2,3.5v-0.5l-3.6-3.1h0.5l3.1,2.6v-0.5l-2.5-2.1h0.5l2,1.7v-0.5l-1.4-1.2h0.5l0.9,0.8v-0.5l-0.4-0.3h0.4l0,0
			l4.2-3.6c-0.2-0.1-0.5-0.1-0.7-0.1l-3.5,3v-0.2l3.3-2.8c-0.3,0-0.5,0-0.8,0l-2.5,2.2v-0.4l2.3-1.9h-0.8l-1.5,1.3v-0.2l1.2-1h-0.8
			l-0.4,0.3L327.78,89.43L327.78,89.43z"/>
		<polygon points="320.98,89.73 321.28,89.43 320.98,89.43 		"/>
		<polygon points="323.28,96.13 323.28,96.63 327.68,100.43 327.68,99.93 		"/>
		<polygon points="323.28,98.03 323.28,98.53 327.68,102.33 327.68,101.83 		"/>
		<polygon points="323.18,95.23 323.28,95.73 327.68,99.53 327.68,99.03 		"/>
		<polygon points="323.28,97.53 327.68,101.33 327.68,100.93 323.28,97.13 		"/>
		<polygon points="320.98,89.93 320.98,90.63 322.38,89.43 321.58,89.43 		"/>
		<polygon points="327.68,104.13 327.68,103.63 323.28,99.83 323.28,100.33 		"/>
		<path d="M338.08,93.83l-3.6,3.1v0.7l0.1-0.1l0.2,0.1l-0.3,0.2l0,0v0.7l0.1-0.1l0.2,0.1l-0.3,0.2l0,0v0.7l0.1-0.1l0.2,0.1l-0.2,0.2
			l0,0v0.6l0.1-0.1l0.2,0.1l-0.2,0.2l0,0v0.3c0,2.1-2,3.8-4.5,3.8h-2.2v-0.1l-4.5-3.8v0.5l4,3.4h-0.5l-3.5-3v0.5l2.9,2.5h-0.5
			l-2.4-2v0.5l1.8,1.5h-0.6l-1.3-1.1v0.5l0.7,0.6h-0.5l-0.2-0.2v0.2h-2.2v3.8h9c4.9,0,9-3.4,9-7.6v-0.4l-0.1,0.1l-0.1-0.1l0.2-0.2
			v-0.7l-0.1,0.1l-0.1-0.1l0.2-0.2v-0.7l-0.1,0.1l-0.1-0.1l0.3-0.2v-0.7l-0.1,0.1l-0.1-0.1l0.3-0.2v-0.7l-0.3,0.2h-0.4l0.1,0.1
			l-0.2,0.2l-0.1-0.1l0.8-0.6c0-0.2,0-0.4-0.1-0.6l-1.3,1.1h-0.2l0.1,0.1l-0.2,0.2l-0.1-0.1l1.8-1.5c0-0.2-0.1-0.4-0.1-0.5l-2.2,1.9
			h-0.2l0.1,0.1l-0.3,0.2l-0.2-0.1l2.6-2.2c-0.1-0.2-0.1-0.4-0.2-0.5l-3,2.6h-0.2l0.1,0.1l-0.2,0.2l-0.2-0.1l3.5-3
			C338.28,94.13,338.18,93.93,338.08,93.83z M338.48,100.83h-0.3l0.2-0.1L338.48,100.83L338.48,100.83z M338.28,100.03l-0.1-0.1
			l0.3-0.2l0.1,0.1L338.28,100.03z M338.28,99.13l-0.1-0.1l0.3-0.2l0.1,0.1L338.28,99.13z M338.38,97.93l0.1,0.1l-0.2,0.2l-0.1-0.1
			L338.38,97.93z M337.68,100.53l-0.1-0.1l0.3-0.2l0.1,0.1L337.68,100.53z M337.68,99.63l-0.1-0.1l0.2-0.2l0.1,0.1L337.68,99.63z
			 M337.68,98.73l-0.1-0.1l0.2-0.2l0.1,0.1L337.68,98.73z M337.78,97.43l0.1,0.1l-0.3,0.2l-0.1-0.1L337.78,97.43z M337.38,100.83
			h-0.3l0.2-0.1L337.38,100.83L337.38,100.83z M337.18,100.03l-0.1-0.1l0.2-0.2l0.1,0.1L337.18,100.03z M337.18,99.13l-0.1-0.1
			l0.3-0.2l0.1,0.1L337.18,99.13z M337.28,97.93l0.1,0.1l-0.3,0.2l-0.1-0.1L337.28,97.93z M336.68,100.53l-0.2-0.1l0.3-0.2l0.1,0.1
			L336.68,100.53z M336.68,99.63l-0.2-0.1l0.3-0.2l0.1,0.1L336.68,99.63z M336.68,98.73l-0.2-0.1l0.2-0.2l0.1,0.1L336.68,98.73z
			 M336.78,97.43l0.1,0.1l-0.2,0.2l-0.2-0.1L336.78,97.43z M336.28,100.83h-0.3l0.1-0.1L336.28,100.83L336.28,100.83z
			 M336.08,100.03l-0.2-0.1l0.2-0.2l0.2,0.1L336.08,100.03z M336.08,99.13l-0.2-0.1l0.2-0.2l0.2,0.1L336.08,99.13z M336.18,97.93
			l0.2,0.1l-0.3,0.2l-0.2-0.1L336.18,97.93z M335.58,100.53l-0.2-0.1l0.2-0.2l0.2,0.1L335.58,100.53z M335.58,99.63l-0.2-0.1
			l0.3-0.2l0.2,0.1L335.58,99.63z M335.58,98.73l-0.2-0.1l0.3-0.2l0.2,0.1L335.58,98.73z M335.68,97.43l0.2,0.1l-0.3,0.2l-0.2-0.1
			L335.68,97.43z M335.28,100.83h-0.3l0.2-0.1L335.28,100.83L335.28,100.83z M334.98,100.03l-0.2-0.1l0.3-0.2l0.2,0.1L334.98,100.03
			z M334.98,99.13l-0.2-0.1l0.2-0.2l0.2,0.1L334.98,99.13z M335.08,97.93l0.2,0.1l-0.2,0.2l-0.2-0.1L335.08,97.93z"/>
		<polygon points="323.28,98.93 323.28,99.43 327.68,103.23 327.68,102.73 		"/>
		<path d="M328.98,93.23h0.8l3.7-3.2c-0.2-0.1-0.4-0.1-0.5-0.2L328.98,93.23z"/>
		<path d="M327.98,93.23h0.8l4-3.4c-0.2-0.1-0.4-0.1-0.6-0.1L327.98,93.23z"/>
		<path d="M345.48,91.13l3.2,2.7c0.1-0.1,0.2-0.2,0.3-0.2l-3.2-2.7L345.48,91.13z"/>
		<path d="M346.08,90.63l3.2,2.7c0.1-0.1,0.3-0.1,0.4-0.1l-3.3-2.8C346.28,90.53,346.18,90.53,346.08,90.63z"/>
		<path d="M344.98,91.53l3.3,2.8c0-0.1,0.1-0.2,0.2-0.3l-3.2-2.7L344.98,91.53z"/>
		<path d="M355.28,93.23c0.2,0,0.4,0.1,0.6,0.2l3.2-2.7c-0.1-0.1-0.3-0.2-0.4-0.3L355.28,93.23z"/>
		<path d="M356.08,93.53c0.1,0.1,0.3,0.2,0.4,0.3l3.2-2.7c-0.1-0.1-0.3-0.2-0.4-0.3L356.08,93.53z"/>
		<path d="M343.58,95.03l4.5,3.8v-0.5l-4.5-3.8C343.58,94.63,343.58,94.83,343.58,95.03z"/>
		<path d="M343.68,94.13l4.4,3.7v-0.5l-4.3-3.6C343.68,93.83,343.68,94.03,343.68,94.13z"/>
		<path d="M356.58,93.93c0.1,0.1,0.2,0.3,0.2,0.5l3.3-2.8c-0.1-0.1-0.2-0.3-0.4-0.4L356.58,93.93z"/>
		<path d="M343.88,93.43l4.2,3.5v-0.5l-4-3.4C343.98,93.13,343.88,93.33,343.88,93.43z"/>
		<path d="M344.18,92.73l3.9,3.3v-0.5l-3.7-3.1L344.18,92.73z"/>
		<path d="M344.58,92.13l3.5,3l0,0c0-0.1,0-0.3,0.1-0.4l-3.3-2.8C344.68,91.93,344.58,92.03,344.58,92.13z"/>
		<path d="M360.48,105.73l-3.5-2.9c0,0.1,0,0.3-0.1,0.4l3.3,2.8C360.38,105.93,360.38,105.83,360.48,105.73z"/>
		<path d="M347.08,90.13c-0.1,0-0.2,0.1-0.4,0.2l3.4,2.9h0.6l0.2-0.2l0.2,0.1l-0.1,0.1h0.8l0.2-0.2l0.2,0.1l-0.1,0.1h0.8l0.2-0.2
			l0.1,0.1l-0.1,0.1h0.8l0.2-0.2l0.1,0.1l-0.1,0.1h0.5c0.1,0,0.2,0,0.3,0l3.4-2.9c-0.2-0.1-0.3-0.2-0.5-0.2l-3.3,2.8l-0.1-0.1
			l0.3-0.2l3-2.6l-0.6-0.2l-2.6,2.2l-0.1-0.1l0.3-0.2l2.2-1.9l-0.6-0.2l-1.8,1.5l-0.1-0.1l0.3-0.2l1.4-1.2c-0.2,0-0.5-0.1-0.7-0.1
			l-0.8,0.7l-0.1-0.1l0.2-0.2l0.5-0.4h-0.9l0,0l-0.3,0.2l-0.1-0.1l0.2-0.1h-0.9l0,0l-0.2,0.2l-0.2-0.1l0.2-0.1h-0.9h0.1l-0.2,0.2
			l-0.2-0.1l0.2-0.1h-0.9l0.1,0.1l-0.3,0.2l-0.2-0.1l0.2-0.1h-0.9l0.3,0.3v0.2l0.1-0.1l0.2,0.1l-0.2,0.2l-0.8-0.7l-0.5,0.1l1.3,1.1
			v0.2l0.1-0.1l0.2,0.1l-0.3,0.2l-1.7-1.5c-0.2,0-0.3,0.1-0.5,0.1l2.1,1.8v0.2l0.1-0.1l0.2,0.1l-0.3,0.2l-2.5-2.1
			c-0.1,0-0.3,0.1-0.4,0.2l2.9,2.4v0.2l0.1-0.1l0.2,0.1l-0.3,0.2L347.08,90.13z M354.08,92.43l-0.1-0.1l0.3-0.2l0.1,0.1
			L354.08,92.43z M354.08,91.43l-0.1-0.1l0.2-0.2l0.1,0.1L354.08,91.43z M354.18,90.23l0.1,0.1l-0.3,0.2l-0.1-0.1L354.18,90.23z
			 M353.58,92.83l-0.1-0.1l0.2-0.2l0.1,0.1L353.58,92.83z M353.58,91.93l-0.1-0.1l0.2-0.2l0.1,0.1L353.58,91.93z M353.58,91.03
			l-0.1-0.1l0.3-0.2l0.1,0.1L353.58,91.03z M353.68,89.73l0.1,0.1l-0.3,0.2l-0.1-0.1L353.68,89.73z M352.98,92.43l-0.2-0.1l0.3-0.2
			l0.1,0.1L352.98,92.43z M352.98,91.43l-0.2-0.1l0.3-0.2l0.1,0.1L352.98,91.43z M353.08,90.23l0.1,0.1l-0.2,0.2l-0.2-0.1
			L353.08,90.23z M352.48,92.83l-0.2-0.1l0.2-0.2l0.2,0.1L352.48,92.83z M352.48,91.93l-0.2-0.1l0.2-0.2l0.2,0.1L352.48,91.93z
			 M352.48,91.03l-0.2-0.1l0.2-0.2l0.2,0.1L352.48,91.03z M352.58,89.73l0.2,0.1l-0.3,0.2l-0.2-0.1L352.58,89.73z M351.98,92.43
			l-0.2-0.1l0.3-0.2l0.2,0.1L351.98,92.43z M351.98,91.43l-0.2-0.1l0.3-0.2l0.2,0.1L351.98,91.43z M352.08,90.23l0.2,0.1l-0.3,0.2
			l-0.2-0.1L352.08,90.23z M351.38,92.83l-0.2-0.1l0.3-0.2l0.2,0.1L351.38,92.83z M351.38,91.93l-0.2-0.1l0.2-0.2l0.2,0.1
			L351.38,91.93z M351.38,91.03l-0.2-0.1l0.2-0.2l0.2,0.1L351.38,91.03z M351.48,89.73l0.2,0.1l-0.2,0.2l-0.2-0.1L351.48,89.73z
			 M350.88,92.43l-0.2-0.2l0.2-0.2l0.2,0.1L350.88,92.43z M350.88,91.43l-0.2-0.1l0.3-0.2l0.2,0.1L350.88,91.43z M350.98,90.23
			l0.2,0.1l-0.3,0.2l-0.2-0.1L350.98,90.23z"/>
		<polygon points="348.08,101.53 348.08,101.03 343.58,97.23 343.58,97.73 		"/>
		<polygon points="348.08,100.63 348.08,100.13 343.58,96.33 343.58,96.83 		"/>
		<polygon points="348.08,102.43 348.08,101.93 343.58,98.13 343.58,98.63 		"/>
		<polygon points="343.58,95.43 343.58,95.93 348.08,99.73 348.08,99.23 		"/>
		<path d="M358.98,107.13l-3.2-2.7c-0.1,0.1-0.3,0.1-0.5,0.1l3.3,2.9L358.98,107.13z"/>
		<path d="M360.18,91.73l-3.3,2.8c0,0.2,0.1,0.3,0.1,0.5v7.6h0.4l3.3,2.7c0.1-0.1,0.1-0.2,0.2-0.3l-2.9-2.5h0.5l2.5,2.1
			c0-0.1,0.1-0.3,0.2-0.4l-2.1-1.8h0.5l1.7,1.4l0.1-0.4l-1.2-1h0.5l0.8,0.7c0-0.2,0.1-0.3,0.1-0.5l-0.3-0.2h0.3v-7.6
			c0-0.2,0-0.4,0-0.6l-0.8,0.6h-0.3l1-0.9c0-0.2-0.1-0.4-0.2-0.6l-1.7,1.4h-0.3l1.9-1.6c-0.1-0.2-0.1-0.4-0.2-0.5l-2.5,2.1h-0.3
			l2.6-2.3c-0.1-0.2-0.2-0.3-0.2-0.5l-3.2,2.8h-0.3l3.4-2.9C360.38,92.03,360.28,91.93,360.18,91.73z"/>
		<path d="M359.98,106.23l-3.2-2.7c-0.1,0.1-0.1,0.2-0.2,0.3l3.2,2.7C359.88,106.43,359.98,106.33,359.98,106.23z"/>
		<path d="M359.48,106.73l-3.1-2.7c-0.1,0.1-0.2,0.2-0.3,0.2l3.2,2.7C359.28,106.93,359.38,106.83,359.48,106.73z"/>
		<path d="M358.28,107.53l-3.5-3h-4.5c-1.1,0.1-2.1-0.8-2.2-1.9h-0.2l-4.3-3.6v0.5l3.7,3.1h-0.5l-3.2-2.7v0.5l2.6,2.2h-0.5l-2.1-1.8
			v0.5l1.5,1.3h-0.5l-1-0.8v0.5l0.4,0.4h-0.4c0,3.1,3,5.7,6.7,5.7h4.7l-0.2-0.2v-0.4l0.7,0.6c0.2,0,0.3,0,0.5,0l-1.1-1v-0.4l1.6,1.3
			c0.2,0,0.3-0.1,0.5-0.1l-2-1.7v-0.4l2.4,2c0.2-0.1,0.3-0.1,0.4-0.1l-2.8-2.4v-0.4l3.1,2.7L358.28,107.53z"/>
	</g>
	<g>
		<path d="M90.18,47.53l-1,3l-0.8,1.7c-0.1,0.2-0.1,0.4-0.2,0.6c-0.1,0.1-0.2,0.3-0.2,0.5l-0.2,0.7l-0.1,0.2c-0.3,0.3-0.5,0.6-0.5,1
			l-0.1,0.6l-0.8,1.4l-0.1,0.1l-2.6,5.5c-0.1,0.2-0.2,0.5-0.2,0.7l-0.2,0.2c-0.2,0.2-0.3,0.3-0.4,0.5l-0.8,1.7l-0.5,0.7
			c-0.2,0.3-0.3,0.6-0.3,1l-0.3,0.4c-0.1,0.1-0.1,0.2-0.2,0.2l-1.1,1.8c-0.1,0.2-0.2,0.5-0.2,0.8h-0.1c-0.1,0.1-0.1,0.1-0.2,0.2
			l-0.6,0.9c-0.1,0.2-0.2,0.3-0.2,0.5l-0.3,1c-0.1,0.2-0.1,0.4-0.1,0.5v0.5c0,1,0.8,1.8,1.7,1.8c0.5,0,0.9-0.2,1.3-0.5l0.8-0.8
			c0.1-0.1,0.2-0.2,0.3-0.4l1.1-1.9c0.1-0.1,0.1-0.3,0.2-0.4c0.3-0.2,0.6-0.6,0.6-1l0.1-0.3l1.6-2.9c0.1-0.1,0.1-0.2,0.1-0.3
			l0.2-0.6c0.1-0.1,0.2-0.2,0.3-0.3l0.5-0.8c0.1-0.2,0.2-0.3,0.2-0.5v-0.3l0.6-0.9c0.1-0.1,0.1-0.2,0.2-0.3l0.4-0.9
			c0-0.1,0.1-0.2,0.1-0.3l0.2-0.8l1.3-2.4l0.1-0.2l1.5-3.7l1.7-3.6c0.1-0.2,0.2-0.5,0.2-0.8c0.1-0.1,0.2-0.3,0.2-0.4l0.9-2.4
			l0.6,0.1h0.3l0.1,0.1l0.4,0.2c0.1,0.1,0.3,0.1,0.4,0.1l0.6,0.1l0,0c0.1,0.1,0.3,0.2,0.4,0.2l0.6,0.2c0.2,0.1,0.4,0.1,0.6,0.1
			l0.1,0.1l0.3,0.5c0.2,0.1,0.4,0.2,0.7,0.2l1.4,1.3l0.3,0.5l0.2,0.7v0.6l-0.3,1.1c0,0.2,0,0.4,0,0.6c0,0.1,0,0.1,0,0.2v0.4
			l-0.7,1.5c-0.1,0.1-0.1,0.3-0.1,0.4l-0.2,1.1l0,0c-0.3,0.3-0.4,0.7-0.4,1.1v0.3l-2.1,6.1c0,0.1-0.1,0.2-0.1,0.4l-0.4,3
			c0,0.1,0,0.1,0,0.2v1.1c0,0.2,0,0.4,0.1,0.6l0.2,0.5c-0.1,0.4-0.1,0.9,0.1,1.3l0.4,1c0.1,0.2,0.2,0.4,0.4,0.5l0.8,0.8
			c0.2,0.2,0.4,0.3,0.6,0.4l1.9,0.8c0.2,0.1,0.3,0.1,0.5,0.1l0.6,0.1h0.4l1.1-0.1c0.1,0,0.2,0,0.3-0.1l2-0.6l0.3-0.1l1.7-1l0.2-0.1
			l0.8-0.6c0.1-0.1,0.2-0.1,0.2-0.2l0.6-0.7c0.1-0.1,0.2-0.2,0.2-0.3c0.3-0.1,0.5-0.3,0.7-0.6l0.1-0.2l0.2-0.1
			c0.2-0.1,0.4-0.3,0.5-0.5l0.4-0.7l0.1,0.5c0,0.2,0.1,0.3,0.1,0.5l0.9,1.8c0.1,0.1,0.1,0.2,0.2,0.4l0.6,0.7
			c0.2,0.2,0.3,0.3,0.6,0.4l2.2,1.1c0.1,0.1,0.2,0.1,0.4,0.1l1,0.2c0.2,0,0.3,0.1,0.5,0h0.7h0.1c0.2,0.1,0.4,0.1,0.7,0.1h0.6
			c0.1,0,0.3,0,0.4,0l3.1-0.8c0.1,0,0.2-0.1,0.3-0.1l2.9-1.4c0.1,0,0.2-0.1,0.3-0.2l1.5-1.1c0.2-0.1,0.3-0.3,0.5-0.5l0.1-0.1
			c0.2-0.1,0.5-0.3,0.6-0.5l0.8-1v0.6c0,0.1,0,0.3,0.1,0.4l0.1,0.5c0,0.1,0.1,0.2,0.1,0.4l0.4,0.9c0.1,0.1,0.2,0.3,0.3,0.4l1.2,1.3
			c0.3,0.4,0.8,0.6,1.3,0.6h0.3c0.2,0.2,0.5,0.3,0.8,0.3l0.6,0.1h0.5l2.2-0.3c0.2,0,0.3-0.1,0.4-0.1l1.9-0.8
			c0.1-0.1,0.3-0.1,0.4-0.2l0.8-0.6l0.2-0.2l0.5-0.5l0.7-0.5v0.1c-0.2,0.3-0.4,0.6-0.4,1l-0.1,0.9l-0.5,1.1l-0.1,0.2l-0.4,1.4
			l-0.3,0.6c-0.1,0.1-0.2,0.3-0.2,0.5l-0.6,2.8l-1.6,4.4c-0.1,0.2-0.1,0.5-0.1,0.8v0.1l-0.9,2.6c-0.1,0.2-0.1,0.4-0.1,0.6v0.6
			c0,0.3,0.1,0.6,0.3,0.9l0.2,0.3c0.3,0.4,0.7,0.7,1.2,0.8c0.1,0,0.2,0,0.3,0c0.4,0,0.8-0.1,1.1-0.4l0.4-0.3c0.3-0.3,0.5-0.6,0.6-1
			l0.3-1.3l1-2.6c0-0.1,0.1-0.2,0.1-0.3l0.2-1c0-0.1,0-0.1,0-0.2c0.1-0.1,0.1-0.3,0.2-0.4l0.5-1.6l0.2-0.3c0.3-0.4,0.4-0.9,0.3-1.5
			l0.9-2l0.1-0.2l1.4-4.4c0-0.1,0.1-0.2,0.1-0.3l0.1-0.7l0.5-1.1c0-0.1,0.1-0.1,0.1-0.2l0.8-2.8v-0.1l0.4,0.8
			c0.1,0.1,0.1,0.2,0.2,0.3l1.8,2.2c0.1,0.1,0.2,0.2,0.4,0.3l1.5,1.1c0.1,0.1,0.2,0.1,0.4,0.2l1.9,0.8c0.1,0,0.2,0.1,0.3,0.1
			l2.2,0.4h0.2l1.3,0.1c0.3,0,0.6,0,0.8-0.2l0.2-0.1c0.2,0,0.4,0,0.6,0l0.6-0.1c0.2,0,0.3,0,0.5-0.1l0.6-0.2l0,0
			c0.4,0.1,0.8,0,1.1-0.1l2.4-1.1c0.1-0.1,0.3-0.1,0.4-0.2l0.4-0.4h0.2c0.4-0.1,0.7-0.3,0.9-0.5l0.4-0.4c0.3-0.1,0.6-0.3,0.8-0.5
			l0.9-0.9l2.9-0.3h0.2l1.1-0.2c0.3-0.1,0.5-0.2,0.7-0.4l0.2-0.2l1.1-0.4l0.2-0.1l3.4-1.8c0.2-0.1,0.3-0.2,0.5-0.4l0.8-0.8l1.2,3.6
			c0.1,0.2,0.2,0.4,0.3,0.5l1.5,2c0.1,0.1,0.2,0.2,0.3,0.3l1.6,1.3c0.1,0.1,0.2,0.2,0.4,0.2l0.5,0.2c0.2,0.1,0.4,0.1,0.6,0.2h0.2
			l1.1,0.5c0.2,0.1,0.4,0.1,0.6,0.2l1.5,0.2c0.2,0,0.4,0,0.6,0l0,0c0.2,0.1,0.5,0.1,0.7,0.1h1c0.1,0,0.3,0,0.4-0.1l1.1-0.3h0.2
			c0.4,0.1,0.7,0,1.1-0.1l0.4-0.2h0.1c0.4,0,0.8,0,1.1-0.2l0.7-0.4l1.8-0.8c0.2-0.1,0.5-0.3,0.6-0.5l0.1-0.2l2-1.3
			c0.3-0.2,0.5-0.4,0.6-0.7v0.2c0,0.1,0,0.3,0.1,0.4l0.3,1c0,0.1,0.1,0.2,0.1,0.3l0.4,0.8c0.1,0.1,0.2,0.3,0.3,0.4l0.6,0.6
			c0.4,0.4,0.9,0.5,1.4,0.5l0.1,0.1c0.2,0.2,0.5,0.3,0.8,0.3l1.5,0.2c0.1,0,0.3,0,0.4,0l1-0.1c0.2,0,0.3-0.1,0.4-0.1l1.5-0.6
			c0.1,0,0.2-0.1,0.3-0.2l3.5-2.3c0.2-0.1,0.3-0.3,0.5-0.5l0.5-0.7l0.9-1v0.1c0,0.2,0.1,0.3,0.1,0.4l0.8,1.9
			c0.1,0.3,0.4,0.6,0.7,0.8c0.1,0.2,0.3,0.3,0.4,0.5l0.7,0.5c0.1,0.1,0.2,0.1,0.4,0.2l1.7,0.7c0.1,0.1,0.3,0.1,0.4,0.1l1,0.1h0.3
			h0.2l2-0.2c0.2,0,0.4-0.1,0.6-0.2l1.6-0.8h0.1c0.4-0.1,0.7-0.2,0.9-0.5l0.5-0.5l0.7-0.4c0.2-0.1,0.3-0.2,0.5-0.4l0.3-0.4
			c0.1-0.2,0.2-0.3,0.3-0.5h0.1l0.8-0.6c0.2-0.1,0.3-0.3,0.4-0.5l1.2-2c0.1-0.2,0.2-0.3,0.2-0.5l0.6-0.4c0.2-0.2,0.4-0.4,0.6-0.6
			l0.2-0.5c0.1-0.1,0.1-0.3,0.1-0.4l0.2-0.1c0.2-0.2,0.4-0.5,0.5-0.8l0.3-0.7c0.2-0.1,0.3-0.3,0.4-0.5l0.7-1.3
			c0.1-0.2,0.2-0.4,0.2-0.6v-0.1c0.1-0.1,0.2-0.3,0.3-0.5l0.7-1.4c0.1-0.2,0.2-0.4,0.2-0.6l0.1-0.6c0.1-0.7-0.2-1.3-0.8-1.7
			l-0.2-0.1c-0.8-0.5-1.9-0.3-2.4,0.5c0,0.1-0.1,0.1-0.1,0.2l-0.1,0.1c-0.3,0.3-0.5,0.6-0.6,1.1l-0.1,0.6c-0.4,0.2-0.6,0.6-0.7,1
			l-0.2,0.6l-0.1,0.1c-0.2,0.2-0.3,0.4-0.4,0.6l-0.2,0.6c-0.3,0.2-0.6,0.5-0.7,0.9l-0.1,0.3l-0.8,1.2c-0.1,0.2-0.2,0.3-0.2,0.5
			l-0.2,0.5c-0.4,0.1-0.7,0.4-0.9,0.7l-0.4,0.7l-1.2,1.3l-0.1,0.1l-0.2,0.2l-2,1.6l-1.3,0.6l-1.8,0.3h-0.4c-0.1-0.1-0.3-0.1-0.4-0.2
			l-0.3-0.1l-0.6-0.4l-0.6-1.3l-0.1-0.6l0.1-1.4v-0.2l0.4-2.5l0.4-0.7c0.1-0.2,0.2-0.5,0.2-0.8v-0.3l0.5-1.2v-0.1
			c0.2-0.2,0.3-0.5,0.3-0.8v-0.1c0-0.1,0-0.1,0-0.2v-0.2c0.1-0.1,0.1-0.2,0.1-0.2l0.4-1c0.1-0.3,0.1-0.6,0.1-0.8
			c0-0.1,0.1-0.1,0.1-0.2l0.3-1c0.1-0.2,0.1-0.4,0.1-0.5v-0.4c0.2-0.2,0.3-0.5,0.4-0.7l0.4-1.2l0.2-0.3c0.2-0.4,0.3-0.8,0.2-1.2
			l0.1-0.2c0.2-0.2,0.3-0.5,0.3-0.7l0.2-1.2l0.4-0.9c0.1-0.1,0.1-0.3,0.1-0.4l0.6-2.7l0.3-0.5c0.1-0.2,0.2-0.3,0.2-0.5l0.4-0.9
			c0-0.1,0-0.3,0-0.4l0.2-0.4c0.2-0.3,0.3-0.6,0.3-1l0.2-0.3c0.2-0.3,0.3-0.6,0.3-0.9v-0.2l0.5-1c0.1-0.2,0.1-0.3,0.2-0.5l0.2-1.3
			l2-5.8l1.5-5.1c0-0.1,0-0.2,0.1-0.3l0.1-1c0.1-0.8-0.4-1.6-1.2-1.9l-0.4-0.1c-0.8-0.3-1.6,0.1-2.1,0.8l-0.3,0.4
			c-0.1,0.1-0.1,0.2-0.2,0.4l-0.3,1.1c-0.1,0.3-0.1,0.6,0,0.9l-0.4,0.8c0,0.1-0.1,0.1-0.1,0.2l-0.7,2c0,0.1-0.1,0.2-0.1,0.3
			l-0.2,0.9l-1.6,4.7v0.1l-0.5,1.9l-0.7,1.8c0,0.1-0.1,0.2-0.1,0.2l-0.4,1.9l-0.4,0.8c-0.2,0.3-0.3,0.7-0.2,1.1v0.1l-1.3,3.7
			c0,0.1-0.1,0.2-0.1,0.4l-0.1,0.7l-0.3,0.4c-0.1,0.2-0.2,0.4-0.3,0.6l-0.4,1.9l-0.6,1.4c-0.1,0.1-0.1,0.3-0.1,0.4l-0.1,0.4v0.1
			c0,0.1-0.1,0.2-0.1,0.3l-0.5,1.7l-0.1,0.1c-0.2,0.2-0.3,0.5-0.4,0.8l-0.4,1.9l-0.3,0.8l-0.1,0.2v0.1l-0.2,0.3
			c-0.1,0.1-0.1,0.2-0.1,0.3l-0.2,0.6l-0.3,0.4c-0.1,0.2-0.2,0.4-0.3,0.6c-0.2,0.2-0.4,0.3-0.5,0.6l-0.7,1.3l-1.1,1.5
			c-0.1,0.1-0.1,0.1-0.1,0.2l-0.4,0.7l-2.5,2.3l-2.3,1.4l-0.6,0.2l-0.7,0.1l-0.7-0.1c-0.1,0-0.2,0-0.3,0s-0.2-0.1-0.3-0.1l-0.5-0.5
			l-0.3-0.5l-0.1-0.6l0.3-1.9c0-0.2,0-0.3,0-0.5c0.1-0.2,0.2-0.4,0.2-0.7l0.1-0.4c0-0.1,0-0.3,0-0.4c0,0,0-0.1,0.1-0.1l0.3-0.9
			l0.1-0.2l0.4-0.9c0-0.1,0.1-0.2,0.1-0.2l0.4-1.8l0.1-0.2c0.1-0.2,0.2-0.5,0.2-0.8c0.1-0.2,0.2-0.3,0.2-0.5l0.6-2.4l1.3-3.8
			c0.1-0.2,0.1-0.4,0.1-0.7c0.1-0.2,0.2-0.4,0.2-0.6l0.1-0.5c0.3-0.4,0.5-0.9,0.4-1.4c0.1-0.1,0.1-0.2,0.1-0.4l0.1-0.7l0.1-0.2
			c0.1-0.1,0.1-0.2,0.1-0.3l1.3-3.8c0.1-0.3,0.1-0.7,0-1l-0.1-0.5c-0.3-0.9-1.2-1.5-2.2-1.2c-0.1,0-0.2,0.1-0.3,0.1l-0.4,0.2
			c-0.2,0.1-0.4,0.3-0.6,0.4l-0.3,0.4c-0.2,0.2-0.3,0.4-0.4,0.7l-0.6,2.1l-0.5,1.6c-0.1-0.1-0.2-0.2-0.3-0.3l-0.1-0.1l-0.4-1
			c-0.1-0.1-0.1-0.2-0.2-0.3l-0.6-0.8c-0.1-0.1-0.2-0.2-0.2-0.2l-1.5-1.2c-0.1-0.1-0.3-0.2-0.4-0.3l-1.9-0.9c-0.1,0-0.2-0.1-0.2-0.1
			l-1.1-0.3c-0.2-0.1-0.4-0.1-0.6-0.1l-0.3-0.1c-0.1,0-0.3-0.1-0.4-0.1l-1.5-0.1c-0.2,0-0.5,0-0.7,0.1h-0.1c-0.1,0-0.3,0-0.4,0
			l-1.5,0.1c-0.1,0-0.3,0-0.4,0.1l-3.8,1.2c-0.3,0.1-0.6,0.3-0.8,0.5c-0.2,0-0.4,0.1-0.6,0.3l-1.2,0.8c-0.1,0.1-0.3,0.2-0.4,0.3
			l-0.2,0.3c-0.3,0.1-0.5,0.3-0.7,0.5l-1.8,2c-0.1,0.1-0.2,0.3-0.3,0.4c-0.3,0.2-0.6,0.4-0.8,0.8l-0.4,0.8l-1,1.5
			c-0.1,0.1-0.2,0.3-0.2,0.4l-0.2,0.5c-0.2,0.2-0.4,0.4-0.5,0.7l-0.9,2.1c-0.1,0.1-0.1,0.2-0.1,0.4l-0.2,1.3l-0.4,1
			c0,0.1-0.1,0.2-0.1,0.3l-0.2,1.1l-0.2,0.4c-0.1,0.1-0.1,0.2-0.1,0.3v0.1c-0.3,0.2-0.5,0.4-0.6,0.7l-0.1,0.3l-0.6,0.6l-0.1,0.1
			c-0.2,0.1-0.4,0.2-0.6,0.4l-0.9,1l-3.1,2.1l-0.7,0.2l1.9-4.7c0.1-0.3,0.2-0.6,0.1-0.9l0.2-0.4c0.1-0.2,0.1-0.4,0.1-0.6l0.1-1.4
			l0.2-0.9c0.1-0.3,0.1-0.6,0-1l0.2-1.3c0-0.1,0-0.2,0-0.4l-0.1-1.9c0-0.1,0-0.1,0-0.2l-0.3-1.8c0-0.1,0-0.2-0.1-0.3l-0.3-0.9
			c0-0.1-0.1-0.2-0.1-0.3l-1.5-2.5c-0.1-0.1-0.2-0.3-0.3-0.4l-1.5-1.4c-0.2-0.2-0.4-0.3-0.6-0.4h-0.1l-0.2-0.2
			c-0.2-0.2-0.5-0.4-0.8-0.5l-1.5-0.6c-0.2-0.1-0.3-0.1-0.5-0.1h-0.8l-0.7-0.2h-0.2l-2.1-0.2c-0.2,0-0.4,0-0.6,0.1l-0.8,0.2
			l-2.8,0.4l-0.3,0.1l-1,0.3c-0.2,0.1-0.4,0.2-0.6,0.3c-0.3,0-0.5,0.1-0.7,0.3l-2.1,1.5c0-0.1,0-0.2,0-0.2v-0.6c0-1-0.8-1.7-1.8-1.7
			c-0.5,0-1,0.3-1.4,0.7l-0.8,1.1c-0.1,0.1-0.2,0.3-0.2,0.5l-0.6,1.5c0,0.1,0,0.1-0.1,0.2l-0.5,2.1c0,0.1-0.1,0.3-0.1,0.4
			c-0.2,0.3-0.4,0.6-0.4,1l-0.1,0.9c-0.1,0.2-0.2,0.4-0.3,0.5l-0.7,2.2c0,0.1-0.1,0.2-0.1,0.4c-0.1,0.1-0.1,0.2-0.2,0.4l-0.1,0.4
			c-0.1,0.3-0.1,0.5-0.1,0.8l-0.1,0.2c-0.1,0.1-0.1,0.3-0.2,0.4l-0.6,1.9v0.1l-0.5,1.9l-0.5,1c0,0.1-0.1,0.2-0.1,0.2l-0.2,0.2
			c-0.1,0.1-0.1,0.2-0.2,0.2l-1,1.8l-1.1,1.5c-0.1,0.1-0.2,0.3-0.2,0.4l-0.2,0.5l-0.3,0.2c-0.3,0.2-0.5,0.5-0.7,0.8l-0.1,0.2
			l-1.1,1.2c-0.1,0.1-0.1,0.1-0.1,0.2l-0.3,0.5l-0.5,0.2c-0.2,0.1-0.4,0.2-0.5,0.4l-0.5,0.6l-0.5,0.4l-0.8,0.4
			c-0.1,0.1-0.3,0.1-0.4,0.2l-1,0.1l-1.4-0.2l-0.3-0.1l-0.2-0.2l-0.1-1c0-0.2-0.1-0.4-0.1-0.5v-0.1l0.4-3.7l0.2-0.3
			c0.2-0.3,0.3-0.6,0.4-0.9l0.1-0.8l0.5-1.7c0-0.1,0.1-0.2,0.1-0.3l0.1-0.1l0.2-0.4c0.1-0.1,0.1-0.3,0.1-0.4l0.4-1.6l0.2-0.4
			c0.2-0.3,0.2-0.6,0.2-0.9l0,0l0.1-0.2l0.4-0.8c0.1-0.1,0.1-0.2,0.1-0.3l0.4-1.6c0-0.1,0-0.2,0-0.3v-0.4c0.2-0.2,0.3-0.5,0.4-0.7
			l2-6.6v-0.1l0.4-1.9c0.1-0.7-0.1-1.4-0.7-1.8c-0.6-0.4-1.3-0.4-1.9-0.1l-0.4,0.2c-0.2,0.1-0.4,0.3-0.6,0.5l-0.3,0.4
			c-0.2,0.2-0.2,0.5-0.3,0.8l-0.1,0.7l-0.1,0.3c-0.1,0.1-0.1,0.3-0.2,0.4l-0.3,1l-0.1,0.2c-0.2,0.3-0.3,0.7-0.2,1l0,0
			c-0.1,0.1-0.2,0.3-0.2,0.5l-0.8,2.7v0.1c-0.3,0.4-0.3,0.8-0.3,1.3l-0.2,0.4c-0.1,0.1-0.1,0.3-0.2,0.5l-0.4,1.7l-0.2,0.3
			c-0.2,0.3-0.3,0.6-0.3,1v0.4l-0.2,0.3c-0.1,0.2-0.2,0.4-0.2,0.7l-0.1,0.6l-0.5,0.9l-0.1,0.3l-0.6,1.6l-2.8,4l-1.2,1.4l-0.7,0.5
			c-0.2,0.2-0.4,0.5-0.5,0.8l-0.4,0.2l-0.2,0.1l-1.6,1l-1.7,1l-0.6,0.2l-0.7,0.1c-0.2,0-0.4,0.1-0.6,0.2l-0.5,0.3h-0.6l-1.6-0.1
			l-1.2-0.5l-0.4-0.3l-0.9-1l-0.2-0.4l-0.4-1.6v-2.1l0.1-0.1c0.1-0.2,0.2-0.4,0.2-0.7v-0.8l0.9-2.7c0,0,0-0.1,0.1-0.1l0.2-0.4
			c0.1-0.1,0.1-0.2,0.2-0.4l0.4-1.5c0.1-0.2,0.1-0.4,0.1-0.6v-0.1v-0.1c0-0.1,0-0.1,0-0.2c0.1-0.2,0.2-0.4,0.3-0.6l0.1-0.8l0.4-0.7
			c0-0.1,0.1-0.2,0.1-0.2l0.9-3l0.7-1.9c0.1-0.2,0.1-0.4,0.1-0.6v-0.3l0.5-1c0.1-0.2,0.1-0.3,0.2-0.5l0.2-1.2l0,0
			c0.1-0.1,0.1-0.2,0.2-0.4l0.4-1c0.1-0.2,0.1-0.4,0.1-0.6v-1c0-0.6-0.3-1.2-0.9-1.5c-0.5-0.3-1.2-0.3-1.7,0l-0.4,0.3
			c-0.3,0.2-0.5,0.4-0.7,0.7l-0.3,0.5c-0.1,0.1-0.1,0.2-0.1,0.4l-0.7,2.9c-0.2,0.2-0.4,0.5-0.4,0.8l-0.3,1.2l-0.1,0.1
			c-0.2,0.3-0.3,0.7-0.3,1.1c-0.1,0.2-0.2,0.4-0.2,0.6l-0.1,0.8l-0.2,0.2c-0.2,0.3-0.3,0.6-0.3,1c-0.3,0.3-0.4,0.7-0.4,1.1v0.3
			l-0.6,1.3c-0.1,0.2-0.1,0.4-0.1,0.6l-0.1,0.8l-0.7,1.8c0,0.1,0,0.1-0.1,0.2l-0.3,1l-1,2.1c-0.3,0.2-0.6,0.5-0.7,0.8l-1.1,2.2
			l-0.9,1c-0.1,0.1-0.2,0.2-0.3,0.4l-0.4,0.8c0,0,0,0.1-0.1,0.1c-0.2,0.1-0.3,0.1-0.4,0.2l-0.4,0.3c-0.2,0.2-0.3,0.4-0.4,0.6
			l-0.1,0.3l-0.3,0.1c-0.2,0.1-0.4,0.2-0.6,0.4l-1,1l-0.8,0.5l-1.6,0.4l-1.3,0.1l-0.3-0.3l-0.4-0.5l-0.2-0.4v-0.6l0.2-1.9l0.5-2.6
			l0.3-0.4c0.2-0.2,0.3-0.5,0.3-0.8l0.1-0.9l0.1-0.2l0,0c0.2-0.2,0.4-0.5,0.5-0.8l1.1-4.4l0.1-0.2c0.1-0.1,0.1-0.2,0.2-0.4l0.3-0.8
			l0.2-0.3c0.2-0.3,0.3-0.7,0.2-1.1c0-0.1,0-0.2,0-0.2l0.1-0.4c0-0.1,0-0.3,0-0.4c0-0.1,0-0.2,0-0.2l0.2-1.5c0-0.3,0-0.7-0.2-1
			l-0.1-0.2l-0.1-1c0-0.2-0.1-0.4-0.2-0.6l-0.7-1.3c-0.1-0.2-0.2-0.3-0.4-0.5l-1.4-1.2c-0.1-0.1-0.2-0.2-0.4-0.2l-2.6-1.3l-0.2-0.1
			l-1.8-0.7c-0.2-0.1-0.4-0.1-0.6-0.1l0,0h-0.5c-0.2-0.2-0.5-0.3-0.8-0.4l-0.4-0.1l0.1-0.8c0.1-0.7-0.3-1.5-1-1.8l-0.5-0.2
			c-0.2-0.1-0.5-0.2-0.8-0.2h-0.5c-0.2,0-0.5,0.1-0.7,0.2l-0.8,0.4c-0.4,0.2-0.7,0.4-0.8,0.8l-0.2,0.4c-0.1,0.2-0.2,0.5-0.2,0.8v0.5
			c0,0.2,0,0.4,0.1,0.6l0.4,1v0.2l-0.3,0.6C90.18,47.43,90.18,47.53,90.18,47.53z M186.08,61.93l0.3-0.5c0.1-0.2,0.2-0.4,0.2-0.6
			l0.1-0.4c0.1-0.3,0-0.6-0.1-0.9l0.3-0.9l0.3-0.7c0.1-0.2,0.2-0.5,0.2-0.8v-0.2l0.2-0.2c0.1-0.1,0.2-0.3,0.2-0.5l0.2-0.7l1.8-2.6
			l2.4-2.7c0.1,0,0.2-0.1,0.3-0.1l0.4-0.3c0.2-0.1,0.3-0.2,0.4-0.4l0.3-0.1c0.2-0.1,0.3-0.1,0.5-0.3l0.8-0.6l0.5-0.1
			c0.3,0,0.5-0.1,0.7-0.3l0.8-0.5l1.9-0.2c0.2,0,0.4-0.1,0.5-0.1l1,0.2c0.1,0,0.3,0,0.4,0h0.6l0.3,0.1c0.1,0.1,0.3,0.1,0.4,0.1
			c0.2,0.1,0.3,0.2,0.5,0.2l1.1,0.3l0,0c0.2,0.3,0.5,0.5,0.8,0.7l0.4,0.1l1.1,1.4l0.2,0.8c0.1,0.4,0.3,0.7,0.6,0.9l0.1,1.1
			c0,0.2,0.1,0.3,0.1,0.5l0.1,0.2c-0.1,0.2-0.1,0.5-0.1,0.7l0.1,1.2l-0.2,2l-0.3,1.8l-0.5,1.5c-0.1,0.2-0.1,0.5-0.1,0.7v0.1
			c-0.1,0.1-0.1,0.2-0.2,0.3l-0.4,0.9c0,0.1-0.1,0.2-0.1,0.3l-0.1,0.5l-0.1,0.1l-0.8,1.4c-0.1,0.2-0.1,0.3-0.2,0.5v0.1l-0.4,0.4
			l-0.1,0.1l-2.4,3l-2.7,1.7l-1.6,0.8l-1.6,0.5l-1.8,0.3l-1.9-0.2h-0.5l-1.9-0.8l-0.6-0.4l-1.3-1.1l-0.4-0.4l-1.2-2.9v-2.7
			L186.08,61.93z M159.38,53.73l0.4-1.2c0-0.4,0.1-0.7,0.3-1l0.2-0.4c0.1-0.1,0.1-0.2,0.1-0.4l0.1-0.1l0.3-0.4
			c0.1-0.1,0.2-0.2,0.2-0.3l0.2-0.4l0.7-0.4c0.2-0.1,0.4-0.3,0.6-0.5l1.4-0.7l0.6-0.1h3c0.1,0,0.2,0,0.4,0h0.1l1.9,0.6
			c0.1,0,0.3,0.1,0.4,0.1l1,0.9l1.1,1.2l0.8,1.8l0.3,1.6l0.1,1.9v3.3l-0.2,0.2c-0.2,0.3-0.3,0.6-0.3,0.9l-0.1,1.4
			c-0.3,0.2-0.5,0.6-0.6,0.9l-0.1,0.3l-2,4.1l-0.5,0.5c-0.1,0.1-0.2,0.2-0.3,0.3l-0.1,0.2h-0.4l-2.9-0.6h-0.2
			c-0.2-0.2-0.5-0.4-0.7-0.5l-0.3-0.1l-1.4-0.9l-0.5-0.5l-2.1-2.9l-1.3-4l-0.2-1.8V53.73z M152.48,63.83c0.2-0.4,0.2-0.9,0.1-1.3
			c0.1-0.2,0.1-0.4,0.1-0.6v-0.2l0.3-0.6c0.1-0.2,0.1-0.5,0.1-0.7v-0.4v-0.1l1.1-3.4c0.4-0.2,0.7-0.6,0.8-1l0.2-0.8l0.1-0.2
			l-0.1,0.8c0,0.1,0,0.2,0,0.2v1c0,0.1,0,0.2,0,0.3l0.6,3.9c0,0.1,0.1,0.3,0.1,0.4l1.2,2.8c0,0.1,0.1,0.1,0.1,0.2l0.5,0.9
			c0,0.1,0.1,0.2,0.2,0.2l0.4,0.5l0.1,0.2c0.1,0.2,0.1,0.3,0.2,0.4l0.4,0.5l0.1,0.2c0.1,0.2,0.3,0.5,0.5,0.6l2,1.7
			c0.2,0.1,0.3,0.2,0.5,0.3l0.2,0.1c0.2,0.3,0.5,0.6,0.9,0.7l2.2,0.7l-0.6,0.4l0,0c-0.2,0-0.3,0.1-0.5,0.1l-0.6,0.2
			c-0.1,0-0.2,0.1-0.3,0.2c-0.3,0-0.5,0.1-0.7,0.2l-0.7,0.3c-0.3-0.1-0.7-0.1-1,0l-0.6,0.2h-0.6l-2.8-0.4l-0.4-0.2
			c-0.2-0.1-0.3-0.1-0.5-0.1l-0.2-0.2c-0.1-0.1-0.2-0.1-0.2-0.2l-0.7-0.5l-1-1.1c-0.1-0.2-0.1-0.3-0.2-0.4l-0.4-0.6l-0.7-1.9l0,0
			v-0.2c0-0.3,0-0.7-0.1-1l-0.1-1.8C152.48,64.03,152.48,63.93,152.48,63.83L152.48,63.83z"/>
		<path d="M428.88,58.83l-0.2-0.3c-0.5-0.8-1.6-1.1-2.4-0.6c-0.2,0.1-0.4,0.3-0.6,0.6l-0.2,0.4c-0.1,0.2-0.2,0.4-0.2,0.6l-0.1,0.1
			c-0.2,0.2-0.4,0.4-0.6,0.6l-0.3,0.5c-0.1,0.1-0.1,0.2-0.1,0.3v0.1c-0.3,0.2-0.5,0.4-0.6,0.7l-0.1,0.3l-0.6,0.6l-0.1,0.1
			c-0.2,0.1-0.4,0.2-0.6,0.4l-0.9,1l-3.1,2.1l-0.7,0.2l2-4.7c0.1-0.3,0.2-0.6,0.1-0.9l0.2-0.4c0.1-0.2,0.1-0.4,0.1-0.6l0.1-1.4
			l0.2-0.9c0.1-0.3,0.1-0.6,0-1l0.2-1.3c0-0.1,0-0.2,0-0.4l-0.1-2c0-0.1,0-0.1,0-0.2l-0.3-1.8c0-0.1,0-0.2-0.1-0.3l-0.3-0.9
			c0-0.1-0.1-0.2-0.1-0.3l-1.5-2.5c-0.1-0.1-0.2-0.3-0.3-0.4l-1.5-1.4c-0.2-0.2-0.4-0.3-0.6-0.4h-0.1l-0.2-0.2
			c-0.2-0.2-0.5-0.4-0.8-0.5l-1.5-0.6c-0.2-0.1-0.3-0.1-0.5-0.1h-0.9l-0.7-0.2h-0.2l-2-0.2c-0.2,0-0.4,0-0.6,0.1l-0.8,0.2l-2.8,0.4
			c-0.1,0-0.2,0-0.3,0.1l-1,0.3c-0.2,0.1-0.4,0.2-0.6,0.3c-0.3,0-0.5,0.1-0.7,0.3l-2.1,1.5c0-0.1,0-0.2,0-0.2v-0.5
			c0-1-0.8-1.7-1.8-1.7c-0.5,0-1,0.3-1.4,0.7l-0.8,1.1c-0.1,0.1-0.2,0.3-0.3,0.5l-0.6,1.5c0,0.1,0,0.1-0.1,0.2l-0.5,2.1
			c0,0.1,0,0.2,0,0.4c-0.2,0.3-0.4,0.6-0.4,1l-0.1,0.9c-0.1,0.2-0.2,0.3-0.3,0.5l-0.7,2.2c0,0.1-0.1,0.2-0.1,0.4
			c-0.1,0.1-0.1,0.2-0.2,0.4l-0.1,0.4c-0.1,0.3-0.1,0.5-0.1,0.8l-0.1,0.2c-0.1,0.1-0.1,0.2-0.2,0.4l-0.6,2v0.1l-0.5,1.9l-0.5,1
			c-0.1,0.2-0.1,0.3-0.1,0.5l-0.6,0.3c-0.1,0.1-0.2,0.3-0.2,0.4l-0.1,0.4c-0.2,0.2-0.3,0.4-0.4,0.6l-0.1,0.3l-2,2.6
			c-0.1,0.1-0.2,0.3-0.2,0.4v0.1l-0.4,0.4c-0.1,0.1-0.2,0.2-0.2,0.3l-0.8,1.1l0,0c-0.3,0.1-0.6,0.3-0.8,0.6l-0.6,0.8l-0.2,0.1
			c-0.1,0.1-0.3,0.1-0.4,0.2l-0.5,0.4l-0.6,0.2c-0.2,0.1-0.5,0.2-0.6,0.3l-0.1,0.1c-0.2,0-0.4,0-0.6,0.1l-0.3,0.1
			c-0.1,0-0.3,0-0.4,0h-0.6l-0.4-0.1l-0.5-0.8v-2.9l0.1-0.6l0.2-0.4c0.1-0.2,0.1-0.3,0.2-0.5l0.2-1.1l0,0c0.2-0.2,0.3-0.4,0.4-0.6
			l0.8-2.8c0-0.2,0.1-0.3,0.1-0.5v-0.2l0.6-1.6c0-0.1,0.1-0.1,0.1-0.2l0.6-2.1c0-0.1,0-0.2,0-0.2v-0.3c0.2-0.2,0.3-0.5,0.4-0.8
			l0.2-1.3l0.4-1.3c0-0.2,0.1-0.3,0.1-0.5v-0.4c0-0.1,0-0.2,0-0.3s0-0.2,0.1-0.3l0.1-0.4c0-0.2,0-0.4,0-0.6l-0.2-1.2v-0.8
			c0-0.2,0-0.4-0.1-0.6l-0.6-1.5c0-0.1-0.1-0.2-0.2-0.3l-1.1-1.6c-0.2-0.2-0.4-0.4-0.7-0.6l-0.5-0.2l-0.1-0.1l-0.3-0.3
			c-0.3-0.3-0.7-0.5-1.2-0.5c-0.2-0.2-0.5-0.3-0.7-0.3l-1.5-0.3c-0.1,0-0.2,0-0.4,0h-1c-0.3,0-0.6,0.1-0.8,0.2h-0.4
			c-0.1,0-0.3,0-0.4,0l-1.1,0.2c-0.1,0-0.2,0.1-0.4,0.1l-2.6,1c-0.2,0.1-0.3,0.2-0.5,0.3l-1.4,1.1h-0.4c-0.5,0.1-1,0.5-1.2,1
			l-0.1,0.1c-0.1,0.1-0.2,0.1-0.3,0.2l-1.4,1.4c-0.1,0.1-0.1,0.1-0.2,0.2l-0.1,0.2l-0.2-0.8c-0.1-0.3-0.2-0.5-0.4-0.7l-0.5-0.5v-0.1
			l-0.1-0.4c-0.1-0.3-0.2-0.5-0.5-0.8l-0.7-0.7c-0.1-0.1-0.2-0.1-0.2-0.2l-1.6-1.1c-0.2-0.2-0.5-0.2-0.8-0.3l-3-0.4
			c-0.1,0-0.1,0-0.2,0h-1.2h-0.3l-1.1,0.2l-0.3,0.1l-2.4,0.9c-0.5,0.4-1,0.7-1.5,0.9l-1,0.8l-0.6,0.4v-1c0-1-0.8-1.7-1.8-1.7
			c-0.3,0-0.7,0.1-1,0.3l-0.4,0.2c-0.2,0.1-0.4,0.3-0.5,0.5l-0.3,0.4c-0.1,0.2-0.2,0.4-0.3,0.6l-0.3,1.5c-0.3,0.3-0.5,0.8-0.5,1.2
			v0.2l-0.2,0.4c-0.2,0.3-0.3,0.6-0.3,0.9v0.2c-0.2,0.2-0.3,0.5-0.3,0.8v0.2l-0.1,0.1c-0.3,0.4-0.3,0.9-0.2,1.4l-0.1,0.1l-0.5,0.9
			c-0.1,0.1-0.1,0.2-0.1,0.3l-0.5,1.9c-0.1,0.1-0.1,0.2-0.1,0.3l-1.3,4.2l-0.1,0.2l-0.1,0.6l-0.5,0.9c-0.1,0.1-0.1,0.2-0.1,0.3
			l-0.2,0.6l-0.3,0.4c-0.1,0.2-0.2,0.4-0.3,0.6c-0.2,0.2-0.4,0.3-0.5,0.6l-0.7,1.3l-1.1,1.5c-0.1,0.1-0.1,0.1-0.1,0.2l-0.4,0.7
			l-2.5,2.3l-2.2,1.4l-0.6,0.2l-0.7,0.1l-0.7-0.1h-0.3l-0.3-0.1l-0.5-0.5l-0.3-0.5l-0.1-0.6l0.3-1.9c0-0.2,0-0.3,0-0.5
			c0.1-0.2,0.2-0.4,0.2-0.7l0.1-0.4c0-0.1,0-0.3,0-0.4v-0.1l0.3-0.9c0-0.1,0.1-0.2,0.1-0.2l0.4-0.9c0-0.1,0.1-0.2,0.1-0.2l0.5-1.8
			l0.1-0.2c0.1-0.2,0.2-0.5,0.2-0.8c0.1-0.1,0.2-0.3,0.2-0.5l0.6-2.4l1.3-3.8c0-0.4,0.1-0.9,0.3-1.3l0.1-0.5
			c0.3-0.4,0.5-0.9,0.4-1.4c0.1-0.1,0.1-0.2,0.1-0.4l0.1-0.7l0.1-0.2c0.1-0.1,0.1-0.2,0.1-0.3l1.3-3.8c0.1-0.3,0.1-0.7,0-1l-0.1-0.5
			c-0.1-0.5-0.5-0.9-1-1.2c-0.5-0.2-1-0.2-1.5,0l-0.4,0.2c-0.2,0.1-0.4,0.3-0.6,0.4l-0.3,0.4c-0.2,0.2-0.3,0.4-0.4,0.7l-0.5,2.1
			l-0.5,1.4c-0.1-0.1-0.2-0.2-0.3-0.2l-0.1-0.1l-0.5-1c0-0.1-0.1-0.2-0.1-0.4l-0.6-0.8c-0.1-0.1-0.1-0.2-0.2-0.2l-1.5-1.3
			c-0.1-0.1-0.3-0.2-0.4-0.3l-1.9-0.9l-0.2-0.1l-1.1-0.3c-0.2-0.1-0.4-0.1-0.6-0.1l-0.3-0.1c-0.1,0-0.3-0.1-0.4-0.1l-1.5-0.1
			c-0.2,0-0.5,0-0.7,0.1h0.1c-0.1,0-0.3,0-0.4,0l-1.5,0.1c-0.1,0-0.3,0-0.4,0.1l-3.8,1.2c-0.3,0.1-0.6,0.3-0.8,0.5
			c-0.2,0-0.4,0.1-0.6,0.3l-1.2,0.8c-0.1,0.1-0.3,0.2-0.4,0.3l-0.2,0.3c-0.3,0.1-0.5,0.3-0.7,0.5l-1.8,2c-0.1,0.1-0.2,0.3-0.3,0.4
			c-0.4,0.2-0.6,0.5-0.8,0.8l-0.4,0.8l-1,1.5c-0.1,0.1-0.2,0.3-0.2,0.4l-0.2,0.5c-0.2,0.2-0.4,0.4-0.5,0.7l-0.9,2.1
			c0,0.1-0.1,0.3-0.1,0.4l-0.2,1.3l-0.4,1c0,0.1-0.1,0.2-0.1,0.3l-0.3,1.7c0,0,0,0,0,0.1l-0.2,0.2c-0.1,0.1-0.1,0.1-0.1,0.2
			l-2.1,3.3l-1.8,2.1l0,0c-0.2,0.2-0.4,0.3-0.5,0.6l-0.5,0.6c-0.1,0.1-0.2,0.3-0.3,0.5l-0.1,0.1c-0.2,0.1-0.4,0.2-0.5,0.4l-1,1.2
			l-0.6,0.3c-0.2,0.1-0.3,0.2-0.5,0.3l-0.6,0.6l-1.5,1.1l-2.7,1.7c-0.3,0-0.6,0.1-0.9,0.2l-1.2,0.6l-1.6,0.6l-1.9,0.4
			c-0.3,0.1-0.5,0.2-0.7,0.4h-0.1c-0.2,0-0.3-0.1-0.5,0l-1.8,0.1h-0.2c-0.3-0.1-0.5-0.1-0.8,0l-0.7,0.1l-1.2-0.1l-2-0.4h-0.2h-0.4
			l0,0c-0.2-0.1-0.4-0.2-0.6-0.2l-1.1-0.2l-2.7-1.7l-0.2-0.1l-0.5-0.2l-0.5-0.5c-0.1-0.1-0.2-0.2-0.3-0.3l-1.5-1.1l-0.4-0.5
			l-0.1-0.2c-0.1-0.3-0.4-0.6-0.6-0.8l-0.4-0.2c-0.1-0.4-0.3-0.7-0.6-0.9l-0.1-0.4c0-0.1-0.1-0.2-0.1-0.3l-1.4-2.5l-0.1-0.8
			l-0.1-0.2l-0.6-1.7l-0.1-0.8c0-0.3-0.1-0.7-0.3-0.9l-0.1-0.1v-0.4c0-0.2,0-0.4,0-0.7l-0.1-0.5v-0.2c0.1-0.4,0-0.7-0.1-1v-1.2
			l0.9-7.8l0.7-1.6v-0.1l1.3-3.6l1.1-1.4c0-0.1,0.1-0.1,0.1-0.2l1-1.8l0.5-0.6c0.1-0.1,0.2-0.3,0.3-0.5l0.3-0.6l0.6-0.4
			c0.3-0.2,0.5-0.5,0.6-0.8l0.1-0.3l0.5-0.4c0.1-0.1,0.2-0.1,0.3-0.2l0.8-0.8c0.3-0.1,0.6-0.3,0.9-0.6l2.2-1.7l0.8-0.4l0.2-0.1
			l1.6-1l4.8-1.5l0.8-0.1h1.5c0.2,0,0.4,0,0.6-0.1l0.3-0.1l1.3,0.1c0.3,0,0.5,0,0.8-0.1l0,0l0.9,0.2h0.1l1.5,0.2l0.2,0.2
			c0.2,0.1,0.3,0.2,0.5,0.2l1.2,0.3l1.7,1l1.4,1.2l0.2,0.3l0.6,1.4c0.1,0.1,0.1,0.3,0.2,0.4l0.2,2.3v0.4l-0.2,0.1l-0.4,0.2
			c-0.3,0.1-0.5,0.3-0.7,0.5l-0.3,0.4c-0.1,0.2-0.2,0.4-0.3,0.6l-0.1,0.4c-0.1,0.3-0.1,0.7,0,1l0.1,0.4c0.1,0.3,0.2,0.6,0.5,0.8
			l0.3,0.3c0.3,0.3,0.6,0.4,1,0.5l0.5,0.1c0.3,0,0.5,0,0.8-0.1l0.4-0.1c0.3-0.1,0.5-0.2,0.7-0.5l0.8-0.9c0.1-0.1,0.2-0.3,0.3-0.4
			l0.3-0.5c0-0.1,0.1-0.2,0.1-0.3l0.3-1c0.1-0.2,0.1-0.4,0.1-0.5v-3.6c0-0.3-0.1-0.7-0.3-0.9l-0.2-0.3l0,0c0-0.3-0.1-0.7-0.3-0.9
			l-1.7-2.6c-0.1-0.1-0.2-0.2-0.2-0.3l-0.8-0.8c-0.1-0.1-0.2-0.2-0.4-0.3l-0.5-0.3l-0.2-0.3c-0.2-0.3-0.5-0.6-0.9-0.7l-4.3-2
			c-0.1,0-0.2-0.1-0.4-0.1l-2.2-0.3h-0.1l-2.8-0.2c-0.2,0-0.5,0-0.7,0.1l-0.2,0.1c-0.3-0.1-0.7-0.2-1-0.1l-4.7,0.9l-0.3,0.1
			l-1.3,0.5c-0.1,0-0.2,0.1-0.3,0.2l-1.2,0.7l0,0c-0.2,0-0.5,0.1-0.7,0.1l-1,0.4c-0.2,0.1-0.3,0.1-0.4,0.2l-0.6,0.5l-1.7,0.9
			c-0.2,0.1-0.4,0.3-0.6,0.5l-0.2,0.3l0,0c-0.5,0.4-1.1,0.8-1.6,1.2l-0.6,0.8l-0.7,0.6c-0.2,0.2-0.4,0.4-0.5,0.7l-0.1,0.3l-1.1,1.1
			c-0.2,0.2-0.3,0.4-0.4,0.6l-0.1,0.3c-0.2,0.1-0.3,0.3-0.5,0.4l-0.6,0.8c-0.1,0.2-0.2,0.4-0.3,0.6l-0.4,0.4
			c-0.1,0.1-0.2,0.2-0.3,0.4l-1,1.6c-0.1,0.2-0.2,0.4-0.2,0.5c-0.2,0.2-0.4,0.4-0.4,0.7l-1.7,5c0,0.1,0,0.1,0,0.2l-0.9,4
			c0,0.1,0,0.1,0,0.2l-0.2,2.1c0,0.1,0,0.2,0,0.3l0.1,1.4l-0.1,0.3c-0.1,0.2-0.1,0.4-0.1,0.7l0.1,1.6c0,0.2,0,0.3,0.1,0.5l0.3,1
			l-0.1,0.6c-0.1,0.4,0,0.8,0.1,1.1l0.2,0.4c0,0.2,0,0.4,0,0.5l0.2,1c0,0.1,0,0.1,0.1,0.2l1.1,3.2v0.1l1.2,2.8
			c0.1,0.2,0.2,0.3,0.3,0.4l0.6,0.7l0,0c0.1,0.3,0.2,0.6,0.4,0.8l1.9,2.3l0.1,0.1l1.5,1.4l0.1,0.1l1.6,1.2l0.2,0.1l1.7,1.1
			c0.2,0.1,0.4,0.2,0.6,0.2c0.2,0.2,0.4,0.3,0.7,0.4l2.2,0.8h0.2l2,0.4h0.2l3.2,0.3h0.2l2.1-0.1h0.2l1.1-0.2c0.1,0,0.2-0.1,0.4-0.1
			h0.4h0.3c0.2,0.1,0.5,0.1,0.8,0l2-0.6h0.1l4.9-1.8c0.4-0.1,0.7-0.4,0.9-0.8l0.4-0.1c0.1,0,0.2-0.1,0.3-0.1l0.9-0.6l0.3-0.2
			l0.5-0.5l1.1-0.6l0.2-0.1l1.7-1.3l0.2-0.1l0.8-0.8l0.1-0.2l1.2-1.5l1.3-1.2c0.2-0.2,0.3-0.3,0.4-0.6l0.3-0.6l0.7-0.8l1,2.9
			c0.1,0.2,0.1,0.4,0.3,0.5l1.5,2c0.1,0.1,0.2,0.2,0.3,0.3l1.6,1.3c0.1,0.1,0.2,0.2,0.4,0.2l0.5,0.2c0.2,0.1,0.4,0.1,0.6,0.2h0.2
			l1.1,0.5c0.2,0.1,0.4,0.2,0.6,0.2l1.5,0.2c0.2,0,0.4,0,0.6,0l0,0c0.2,0.1,0.5,0.1,0.7,0.1h1c0.1,0,0.3,0,0.4-0.1l1.1-0.3h0.2
			c0.4,0,0.8-0.1,1.1-0.3l0.4-0.2h0.1c0.4,0,0.8,0,1.1-0.2l0.7-0.4l1.8-0.8c0.2-0.1,0.5-0.3,0.6-0.5l0.2-0.2l2-1.3
			c0.3-0.2,0.5-0.4,0.6-0.7v0.2c0,0.1,0,0.3,0.1,0.4l0.3,0.9c0,0.1,0.1,0.2,0.1,0.3l0.5,0.8c0.1,0.1,0.2,0.2,0.3,0.4l0.6,0.6
			c0.4,0.4,0.9,0.5,1.4,0.5l0.1,0.1c0.2,0.2,0.5,0.3,0.8,0.3l1.5,0.2c0.1,0,0.3,0,0.4,0l1-0.1c0.2,0,0.3-0.1,0.5-0.1l1.5-0.6
			c0.1,0,0.2-0.1,0.3-0.2l3-2c0,0.1,0,0.2,0,0.2l0.1,0.5c0.1,1,1,1.6,2,1.5c0.3,0,0.7-0.2,0.9-0.4l0.7-0.6c0.2-0.2,0.4-0.5,0.5-0.8
			l0.9-2.7c0-0.1,0.1-0.2,0.1-0.4c0.2-0.2,0.3-0.5,0.3-0.8v-0.3l0.3-0.7c0-0.1,0.1-0.2,0.1-0.4l0.1-0.7v-0.1
			c0.1-0.1,0.2-0.3,0.2-0.5l1-3v-0.1l0.3-1.2l0.1-0.2c0.2-0.2,0.3-0.5,0.3-0.8v-0.3c0.1-0.1,0.1-0.2,0.2-0.3l0.4-1
			c0.1-0.3,0.1-0.6,0.1-0.9l1.5-3.1l0.4-0.6c0.1-0.1,0.2-0.3,0.2-0.4c0.2-0.2,0.3-0.3,0.4-0.5l0.2-0.6c0-0.1,0.1-0.1,0.1-0.2
			c0.2-0.2,0.4-0.5,0.5-0.8l1-1c0.1-0.1,0.2-0.3,0.3-0.4l0.2-0.4c0-0.1,0.1-0.2,0.1-0.3c0.1-0.1,0.2-0.1,0.2-0.2l0.7-0.7
			c0.1-0.1,0.2-0.2,0.2-0.3l0,0c0.2-0.1,0.3-0.2,0.5-0.3l1.5-1.3c0.5,0,1-0.2,1.3-0.6l0.9-0.3c0.1,0,0.2-0.1,0.3-0.1l0.4-0.2h0.5
			h0.2l1.7-0.1l0.6,0.1l0.6,0.3l1.9,1.4l0.1,0.7c0,0.1,0,0.2,0,0.3l0.4,1.5l-0.2,1.1c0,0.1,0,0.2,0,0.3v1.1l-0.1,0.1
			c-0.3,0.4-0.4,0.9-0.4,1.4l0,0c-0.1,0.2-0.2,0.5-0.3,0.8v0.3l-0.6,1.6c0,0.1-0.1,0.2-0.1,0.3l-0.2,1l-1.1,3
			c-0.1,0.2-0.1,0.3-0.1,0.5v0.6l-0.3,0.6c-0.1,0.1-0.1,0.2-0.1,0.4l-0.7,2.5l-0.7,1.9v0.1l-0.6,2c0,0.1,0,0.2-0.1,0.4v0.3
			c-0.1,0.1-0.1,0.2-0.2,0.3l-0.2,0.4c-0.1,0.2-0.2,0.4-0.2,0.7l-0.1,1c0,1,0.7,1.8,1.7,1.8c0.5,0,1-0.2,1.3-0.5l0.6-0.6
			c0.1-0.1,0.2-0.3,0.3-0.4l0.4-0.9c0.1-0.1,0.1-0.2,0.1-0.4l0.1-0.5c0.1-0.2,0.1-0.4,0-0.5v-0.1l0,0l0.2-0.4
			c0.1-0.2,0.2-0.4,0.2-0.6c0.1-0.2,0.2-0.4,0.2-0.5l0.4-1.9l0.9-2.7c0-0.1,0.1-0.2,0.1-0.3l0.1-0.7l0.8-2.1
			c0.1-0.1,0.1-0.3,0.1-0.5l0.1-0.7l0,0c0.1-0.1,0.2-0.3,0.2-0.4l0.3-0.9c0.1-0.2,0.1-0.4,0.1-0.6c0.1-0.1,0.2-0.3,0.2-0.4l0.2-0.6
			l0.2-0.2c0.1-0.2,0.3-0.3,0.3-0.5l0.6-1.6l0.7-1c0.1-0.1,0.2-0.3,0.2-0.5c0.4-0.3,0.7-0.7,0.7-1.2l0.1-0.1
			c0.1-0.1,0.1-0.1,0.2-0.2l0.6-0.8c0.1-0.1,0.1-0.2,0.2-0.2l0.2-0.3c0.2-0.1,0.5-0.3,0.6-0.5l0.6-0.7l1.2-1.3l1.4-1l2.4-1.1h0.1
			c0.5-0.1,1.1-0.1,1.6-0.2l1.8,0.2l1.3,0.6l0.1,0.1l0.6,0.5l0.7,1.9l0.1,0.7l-0.1,1.7l-0.5,2.6l-0.3,0.6c-0.1,0.1-0.1,0.3-0.2,0.4
			l-0.5,1.9l-0.3,0.6c0,0.1-0.1,0.2-0.1,0.3l-1.2,3.9c0,0.1-0.1,0.3-0.1,0.4v0.6l-0.2,0.4c-0.1,0.1-0.1,0.2-0.2,0.4l-0.4,1.5
			c-0.1,0.2-0.1,0.4-0.1,0.6v0.2c-0.2,0.3-0.4,0.7-0.3,1.1v0.5l-0.1,0.2c-0.1,0.2-0.1,0.5-0.1,0.7l0.1,1.4c0,0.2,0,0.3,0.1,0.5
			l0.6,1.7c0.1,0.2,0.1,0.3,0.2,0.4l0.6,0.8c0.1,0.2,0.3,0.3,0.4,0.4l1.5,1.1c0.3,0.2,0.6,0.3,1,0.3h2.4h0.2l1-0.1
			c0.2,0,0.4-0.1,0.6-0.2l2.6-1.5c0.1-0.1,0.2-0.1,0.3-0.2l0.7-0.6c0.1-0.1,0.2-0.2,0.2-0.3l0.2-0.2l0,0c-0.2,0.3-0.4,0.6-0.4,1
			l-0.1,0.9l-0.5,1.1v0.1l-1,2.7l-0.4,0.6c-0.2,0.3-0.2,0.6-0.2,0.9v0.9l-1.9,4.7c-0.1,0.3-0.2,0.7-0.1,1v0.1c0,0.1-0.1,0.1-0.1,0.2
			l-1.2,3.4c-0.1,0.2-0.1,0.4-0.1,0.6v0.4c0,0.3,0.1,0.6,0.2,0.9l0.2,0.3c0.3,0.4,0.7,0.7,1.2,0.8c0.1,0,0.2,0,0.3,0
			c0.4,0,0.8-0.1,1.1-0.4l0.4-0.3c0.3-0.3,0.5-0.6,0.6-1l0.3-1.4l1.2-3.8l0.5-0.8c0.1-0.2,0.2-0.4,0.2-0.7c0.1-0.2,0.2-0.3,0.2-0.5
			l0.4-1.8l0.3-0.6c0.2-0.3,0.3-0.8,0.2-1.1l0.1-0.2c0-0.1,0.1-0.2,0.1-0.2l2-5.6c0-0.1,0.1-0.2,0.1-0.4l0.1-0.7l0.5-1.1
			c0-0.1,0.1-0.1,0.1-0.2l0.8-2.8v0.4l0.4,0.8c0.1,0.1,0.1,0.2,0.2,0.3l1.8,2.2c0.1,0.1,0.2,0.2,0.4,0.3l1.5,1.1
			c0.1,0.1,0.2,0.1,0.4,0.2l1.9,0.8c0.1,0,0.2,0.1,0.4,0.1l2.2,0.4h0.2l1.3,0.1c0.3,0,0.6,0,0.8-0.2l0.2-0.1c0.2,0,0.4,0,0.6,0
			l0.6-0.1c0.2,0,0.3,0,0.5-0.1l0.6-0.2l0,0c0.4,0.1,0.8,0,1.1-0.1l2.4-1.1c0.1-0.1,0.3-0.1,0.4-0.2l0.5-0.4h0.2
			c0.4-0.1,0.7-0.3,0.9-0.5l0.4-0.4c0.3-0.1,0.6-0.3,0.8-0.5l0.9-0.9l2.9-0.3h0.2l1.1-0.2c0.3-0.1,0.5-0.2,0.7-0.4l0.2-0.2l1.1-0.4
			l0.2-0.1l3.4-1.8c0.2-0.1,0.3-0.2,0.5-0.4l2.4-2.6c0.1-0.1,0.1-0.2,0.2-0.3l0.8-1.3l0.2-0.1c0.5-0.2,0.9-0.8,1-1.4v-0.2l0.6-1.1
			c0.1-0.2,0.2-0.4,0.2-0.6l0.1-0.4C429.18,59.53,429.08,59.23,428.88,58.83z M324.58,57.73l-0.3,1.8l-0.5,1.5
			c-0.1,0.2-0.1,0.5-0.1,0.7v0.1c-0.1,0.1-0.1,0.2-0.2,0.3l-0.4,0.9c0,0.1-0.1,0.2-0.1,0.3l-0.1,0.5l-0.1,0.1l-0.8,1.4
			c-0.1,0.2-0.2,0.3-0.2,0.5v0.1l-0.4,0.4l-0.1,0.1l-2.4,3l-2.6,1.6l-1.6,0.8l-1.6,0.5l-1.8,0.3l-1.9-0.2h-0.5l-1.9-0.8l-0.6-0.4
			l-1.3-1.1l-0.4-0.4l-1.2-2.9v-2.8l0.3-2.2l0.1-0.2c0-0.1,0.1-0.2,0.1-0.2l0.3-0.9c0.1-0.4,0.1-0.8,0-1.2l0.2-0.8l0.3-0.7
			c0.1-0.2,0.2-0.5,0.2-0.8v-0.2l0.2-0.2c0.1-0.1,0.2-0.3,0.2-0.5l0.2-0.7l1.8-2.6l2.4-2.7c0.1,0,0.2-0.1,0.3-0.1l0.4-0.2
			c0.2-0.1,0.3-0.3,0.4-0.4l0.3-0.1c0.2-0.1,0.3-0.1,0.5-0.3l0.8-0.6l0.5-0.1c0.3,0,0.5-0.1,0.7-0.3l0.8-0.5l1.9-0.2
			c0.2,0,0.4-0.1,0.5-0.1l1,0.2c0.1,0,0.3,0,0.4,0h0.6l0.3,0.1c0.1,0.1,0.3,0.1,0.5,0.1c0.2,0.1,0.3,0.2,0.5,0.2l1.1,0.3l0,0
			c0.2,0.3,0.5,0.5,0.8,0.6l0.4,0.1l1,1.4l0.2,0.8c0.1,0.4,0.3,0.7,0.6,0.9l0.1,1.1c0,0.2,0.1,0.3,0.1,0.5l0.1,0.2
			c-0.1,0.2-0.1,0.5-0.1,0.7l0.1,1.2L324.58,57.73z M407.38,71.23L407.38,71.23c-0.2,0-0.3,0.1-0.5,0.1l-0.6,0.2
			c-0.3,0.2-0.6,0.3-1,0.4l-0.7,0.3c-0.3-0.1-0.7-0.1-1,0l-0.6,0.2h-0.6l-2.8-0.4l-0.4-0.2c-0.2-0.1-0.3-0.1-0.5-0.1l-0.2-0.2
			c-0.1-0.1-0.2-0.1-0.2-0.2l-0.7-0.5l-1-1.1c-0.1-0.2-0.1-0.3-0.2-0.4l-0.5-0.6l-0.7-1.9l0,0v-0.2c0.1-0.3,0-0.7-0.1-1v-1.8
			c0-0.1,0-0.2,0-0.3v-0.1c0.2-0.4,0.2-0.9,0.1-1.3c0.1-0.2,0.1-0.4,0.1-0.6l0,0l0.3-1c0.1-0.3,0.1-0.5,0-0.8l1.2-3.6
			c0.4-0.2,0.6-0.6,0.8-1l0.2-0.8l0.1-0.2l-0.1,0.8c0,0.1,0,0.2,0,0.2v1c0,0.1,0,0.2,0,0.3l0.6,3.9c0,0.1,0.1,0.3,0.1,0.4l1.2,2.8
			l0.1,0.2l0.5,0.9c0,0.1,0.1,0.2,0.2,0.2l0.4,0.5l0.1,0.2c0.1,0.2,0.2,0.3,0.3,0.4l0.4,0.5l0.1,0.2c0.1,0.2,0.3,0.5,0.5,0.6l2,1.7
			c0.2,0.1,0.3,0.2,0.5,0.3l0.3,0.1c0.2,0.3,0.5,0.6,0.9,0.7l2.2,0.7L407.38,71.23z M415.88,58.93c-0.2,0.3-0.3,0.6-0.3,0.9
			l-0.1,1.4c-0.3,0.2-0.5,0.6-0.6,0.9l-0.1,0.3l-2,4.1l-0.5,0.5c-0.1,0.1-0.2,0.2-0.3,0.3l-0.1,0.2h-0.4l-2.9-0.6h-0.2
			c-0.2-0.2-0.5-0.4-0.8-0.5l-0.3-0.1l-1.4-0.9l-0.5-0.5l-2.2-2.9l-1.3-3.9l-0.2-1.9l0.1-2.8l0.4-1.2c0.1-0.2,0.1-0.4,0.1-0.6
			c0.1-0.1,0.2-0.2,0.2-0.4l0.2-0.4c0.1-0.1,0.1-0.2,0.1-0.4l0.1-0.1l0.3-0.4c0.1-0.1,0.2-0.2,0.2-0.3l0.2-0.4l0.7-0.4
			c0.2-0.1,0.4-0.3,0.5-0.5l1.4-0.7l0.5-0.1h3c0.1,0,0.3,0,0.4,0h0.1l1.9,0.6c0.1,0,0.3,0.1,0.4,0.1l1,0.9l1.1,1.2l0.8,1.8l0.3,1.6
			l0.1,1.9v3.3L415.88,58.93z"/>
		<path d="M35.38,84.73l0.6,0.4c0.1,0.1,0.3,0.2,0.4,0.2l3.5,1.4c0.3,0.1,0.6,0.1,0.8,0.1h0.4c0.3,0.2,0.6,0.3,0.9,0.4l3.2,0.5h0.2
			l4.8,0.3h0.1c0.1,0,0.2,0,0.3,0l3.5-0.6l2.3-0.2c0.1,0,0.3,0,0.4-0.1l2.2-0.7c0.1,0,0.2-0.1,0.3-0.1l1.5-0.8h0.1
			c0.3,0,0.6-0.1,0.8-0.2l1.3-0.7l0.4-0.1c0.4-0.1,0.8-0.4,1-0.7l0.3-0.1c0.4-0.1,0.8-0.4,1-0.8c0.2-0.1,0.4-0.2,0.5-0.3l0.6-0.5
			l0.3-0.1c0.3-0.1,0.5-0.3,0.7-0.6l0.3-0.4l1.3-1.2c0.1-0.1,0.3-0.3,0.3-0.4c0.1-0.1,0.2-0.2,0.3-0.2l1.3-1.2
			c0.1-0.1,0.1-0.1,0.2-0.2l3-3.7c0.2-0.2,0.3-0.5,0.4-0.8l0.1-0.4l0.7-0.9c0-0.1,0.1-0.1,0.1-0.2l1.1-1.9c0-0.1,0.1-0.2,0.1-0.2
			l2.3-5.9c0-0.1,0-0.2,0.1-0.3l0.7-3.3c0-0.2,0-0.4,0-0.6l0.3-0.6c0.1-0.2,0.2-0.4,0.2-0.6l0.2-1.7c0-0.1,0-0.3,0-0.4l-0.1-0.9
			l0.1-0.2c0.1-0.2,0.1-0.4,0.2-0.7l0.1-2.3v-0.1l-0.4-4.9c0-0.1,0-0.2-0.1-0.3l-1.4-5.8c0-0.2-0.1-0.4-0.2-0.5l-0.8-1.2l-0.8-2
			c-0.1-0.2-0.2-0.4-0.3-0.5l-1.2-1.4l-0.3-0.7c-0.1-0.2-0.3-0.5-0.4-0.6l-1.3-1.2l-0.6-0.8c-0.1-0.2-0.2-0.3-0.4-0.4l-1.4-1
			l-0.7-0.7c-0.2-0.2-0.5-0.4-0.8-0.5c-0.1-0.2-0.3-0.3-0.5-0.4l-1.4-0.8l-0.1-0.1l-2-0.9l-0.7-0.4c-0.2-0.1-0.4-0.2-0.6-0.2
			l-0.8-0.2l-0.3-0.1c-0.3-0.2-0.6-0.2-0.8-0.2l-3.7-1h-0.2l-2.4-0.4h-0.2l-3.2-0.1l-3-0.4c-0.1,0-0.3,0-0.4,0l-7.5,0.7
			c-0.3,0-0.6,0.2-0.9,0.4l-0.6-0.3c-0.4,0-0.8,0-1.1,0.2l-0.6,0.2h-0.3c-0.4,0-0.7,0-1.1,0.2l-0.3,0.2l-1.1,0.3
			c-0.1,0-0.3,0.1-0.4,0.2l-0.6,0.4h-0.2c-0.3,0-0.5,0.1-0.8,0.2l-0.6,0.3h-0.2c-0.3,0-0.6,0.2-0.9,0.4l-0.7,0.6l-1.4,0.7
			c-0.1,0-0.2,0.1-0.3,0.2l-0.9,0.6c-0.2,0.1-0.4,0.3-0.5,0.5v0.1l-0.3,0.1c-0.2,0.1-0.5,0.3-0.6,0.5l-0.3,0.2
			c-0.3,0.1-0.5,0.3-0.7,0.5l-0.9,1.1l0,0c-0.1,0-0.1,0.1-0.1,0.1l-1.2,1.4c-0.1,0.1-0.1,0.2-0.2,0.3l-1.8,3.1
			c-0.1,0.3-0.2,0.6-0.2,0.9c-0.1,0.1-0.2,0.3-0.2,0.5l-0.8,2.8c-0.1,0.2-0.1,0.5,0,0.7l0,0l-0.7,1.4c0,0.2-0.1,0.3-0.1,0.5v0.5
			c0,0.2,0,0.4,0.1,0.6v0.1c-0.1,0.3-0.1,0.6,0,0.9l0.1,0.4l-0.1,1c0,0.2,0,0.4,0,0.6l1,4.3c0,0.2,0.1,0.3,0.2,0.5l0.8,1.5l0.4,1.1
			c0.1,0.2,0.2,0.5,0.4,0.7l0.7,0.7l0.6,0.9c0.1,0.2,0.3,0.4,0.5,0.5l0.5,0.3c0.2,0.1,0.5,0.2,0.7,0.3l0.5,0.1h0.2
			c1,0,1.8-0.8,1.7-1.8c0-0.3-0.1-0.6-0.3-0.9l-2.4-3.8l-0.5-1.7v-0.3c0-0.1,0-0.3,0-0.4l-0.6-2.5l-0.2-1.9l0.2-2.8
			c0.1-0.2,0.2-0.4,0.2-0.6l0.3-1.6l0.8-1.9c0-0.1,0.1-0.2,0.1-0.2l0.2-0.6l0.4-0.4c0.1-0.1,0.2-0.3,0.3-0.4l0.8-1.3l0.6-0.6
			l0.1-0.1c0.1-0.1,0.3-0.2,0.4-0.4l0.2-0.3l0.8-0.7c0.1-0.1,0.2-0.2,0.3-0.3l0.3-0.5c0.2,0,0.3-0.1,0.4-0.2l1.7-1.2l2.9-1.2
			l4.3-1.4l4.3-0.7v0.1l-0.2,0.9l-0.2,0.2c-0.1,0.2-0.3,0.4-0.3,0.7l-0.3,1.7l-0.4,0.8c0,0.1-0.1,0.2-0.1,0.3l-0.5,2l-0.2,0.2
			c-0.1,0.2-0.2,0.4-0.3,0.6l-0.7,2.8l-0.8,2.1c0,0.1-0.1,0.3-0.1,0.5v0.4c-0.2,0.2-0.4,0.5-0.4,0.8l-0.2,1l-0.2,0.3
			c-0.2,0.3-0.3,0.7-0.2,1c-0.2,0.3-0.3,0.6-0.3,1v0.2l-0.9,2.5c-0.1,0.2-0.1,0.3-0.1,0.5v0.6c-0.2,0.2-0.3,0.4-0.3,0.6l-0.9,3.1
			l-0.5,0.9c-0.1,0.2-0.2,0.4-0.2,0.5l-0.2,1.5l-0.4,0.8c-0.1,0.2-0.2,0.5-0.2,0.8v0.5l-0.4,0.9c-0.1,0.1-0.1,0.2-0.1,0.4l-0.5,2
			l-0.2,0.4c-0.1,0.1-0.1,0.2-0.1,0.3l-0.4,1.3c0,0.2-0.1,0.3-0.1,0.5v0.2l-0.9,2.1c0,0.1,0,0.1-0.1,0.2l-0.7,2.2c0,0.1,0,0.1,0,0.2
			l-0.4,2.1l-0.4,0.8c0,0.1-0.1,0.1-0.1,0.2l-0.8,2.2c0,0.1,0,0.1,0,0.2l-1.2,4.6c-0.2,0.7,0.1,1.4,0.6,1.8l1.4,1.1
			c0.1,0.1,0.2,0.1,0.3,0.2l3.3,1.7c0.3,0.1,0.5,0.2,0.8,0.2V84.73z M33.38,79.43l0.1-0.2c0.1-0.2,0.2-0.4,0.2-0.7l0.1-0.8l0.1-0.1
			c0.2-0.3,0.3-0.6,0.3-1v-0.5l1.1-3.4c0-0.1,0.1-0.2,0.1-0.3l0.1-0.8l0.4-0.8c0.1-0.1,0.1-0.3,0.2-0.5l0.2-0.6c0-0.2,0-0.4,0-0.6
			l0,0l0.3-0.4c0.1-0.2,0.2-0.5,0.3-0.7l0.1-0.9c0.3-0.3,0.5-0.6,0.5-1l0.2-1.5l0.7-1.8c0.1-0.2,0.1-0.4,0.1-0.6v-0.2l0.3-0.5
			l0.1-0.2l1.2-3.3c0.1-0.3,0.1-0.6,0.1-0.9l0.3-0.5c0.2-0.3,0.2-0.6,0.3-0.9c0-0.1,0-0.1,0.1-0.2l2.3-7.4c0.1-0.2,0.1-0.3,0.1-0.5
			v-0.4c0.1-0.1,0.2-0.3,0.3-0.5l0.6-1.6c0-0.1,0.1-0.3,0.1-0.4l0.1-0.9c0.1-0.1,0.2-0.3,0.3-0.5l0.3-0.9l0.2-0.2
			c0.2-0.3,0.3-0.8,0.3-1.2v-0.2l0.4-1c0.1-0.2,0.1-0.4,0.1-0.6c0.1-0.1,0.1-0.2,0.2-0.3l0.5-1.2c0.1-0.2,0.1-0.4,0.1-0.6v-0.9
			l0.6-1.2c0-0.1,0.1-0.2,0.1-0.3l0.6-2.2l0.8-2c0.1-0.3,0.2-0.6,0.1-0.9v-0.1c0.1-0.2,0.2-0.3,0.3-0.5v-0.2l0.9-0.1l6.5,0.2
			c0.2,0.2,0.5,0.4,0.8,0.4l2.9,0.6h0.2l0.8,0.1l0.5,0.3c0.2,0.1,0.4,0.2,0.6,0.2l1.4,0.3l1.8,1c0.2,0.1,0.5,0.2,0.7,0.2
			c0.2,0.2,0.4,0.3,0.6,0.4l0.3,0.1c0.2,0.3,0.4,0.5,0.7,0.6l0.3,0.2l1.6,1.4c0.2,0.1,0.4,0.3,0.6,0.3l0.2,0.1l1.4,1.6l2.4,3.5
			l1.7,4l0.5,2.2l0.3,2.4v2.1c0,0.2,0,0.4,0.1,0.6c0,0.1,0,0.2,0,0.2l-0.3,3.8l-0.2,1.1c0,0.1,0,0.1,0,0.2l-0.1,2.1l-0.2,0.4
			c-0.2,0.3-0.3,0.7-0.2,1v0.7l-0.3,0.5c-0.1,0.1-0.1,0.2-0.2,0.4l-0.7,2.3l-1,2c-0.1,0.2-0.1,0.4-0.2,0.5s-0.2,0.3-0.3,0.4
			l-0.9,2.2l-0.5,0.5c-0.2,0.2-0.3,0.4-0.4,0.6l-0.2,0.4l-1.2,1.8l-2.8,3.5c-0.1,0-0.2,0.1-0.3,0.1l-0.5,0.3
			c-0.2,0.1-0.4,0.3-0.6,0.5l-0.6,0.8l-0.4,0.1c-0.2,0.1-0.3,0.1-0.5,0.3l-1.5,1.2h-0.2c-0.2,0-0.3,0.1-0.4,0.2l-1,0.6
			c-0.1,0.1-0.2,0.2-0.3,0.3h-0.1c-0.3,0.1-0.5,0.2-0.7,0.4l-0.6,0.5h-0.1c-0.2,0-0.4,0.1-0.6,0.2l-0.4,0.2l-5.4,1.5l-4.4,0.3
			c-0.2,0-0.3,0-0.5,0.1l-0.2,0.1l-4.8-0.7l-2.1-0.6l-0.8-0.4c-0.2-0.1-0.5-0.2-0.7-0.2h-0.7L33.38,79.43z"/>
	</g>
</g>
</svg>
